<mxfile host="app.diagrams.net" modified="2024-04-15T09:52:05.064Z" agent="Mozilla/5.0 (Windows NT 10.0; Win64; x64) AppleWebKit/537.36 (KHTML, like Gecko) Chrome/123.0.0.0 Safari/537.36" etag="iLMu-qA354XL2GhfifPx" version="24.2.5" type="github">
  <diagram name="页-1" id="Page-1">
    <mxGraphModel dx="2074" dy="1106" grid="1" gridSize="10" guides="1" tooltips="1" connect="1" arrows="1" fold="1" page="1" pageScale="1" pageWidth="827" pageHeight="1169" math="0" shadow="0">
      <root>
        <mxCell id="0" />
        <mxCell id="1" parent="0" />
        <UserObject label="" tags="背景" id="2">
          <mxCell style="vsdxID=119;fillColor=none;gradientColor=none;shape=stencil(nZBLDoAgDERP0z3SIyjew0SURgSD+Lu9kMZoXLhwN9O+tukAlrNpJg1SzDH4QW/URgNYgZTkjA4UkwJUgGXng+6DX1zLfmoymdXo17xh5zmRJ6Q42BWCfc2oJfdAr+Yv+AP9Cb7OJ3H/2JG1HNGz/84klThPVCc=);dashed=1;points=[];labelBackgroundColor=none;rounded=0;html=1;whiteSpace=wrap;" parent="1" vertex="1">
            <mxGeometry x="750" y="1176" width="199" height="231" as="geometry" />
          </mxCell>
        </UserObject>
        <UserObject label="" tags="背景" id="3">
          <mxCell style="vsdxID=118;fillColor=none;gradientColor=none;shape=stencil(nZBLDoAgDERP0z3SIyjew0SURgSD+Lu9kMZoXLhwN9O+tukAlrNpJg1SzDH4QW/URgNYgZTkjA4UkwJUgGXng+6DX1zLfmoymdXo17xh5zmRJ6Q42BWCfc2oJfdAr+Yv+AP9Cb7OJ3H/2JG1HNGz/84klThPVCc=);points=[];labelBackgroundColor=none;rounded=0;html=1;whiteSpace=wrap;" parent="1" vertex="1">
            <mxGeometry x="909" y="528" width="680" height="189" as="geometry" />
          </mxCell>
        </UserObject>
        <UserObject label="&lt;div style=&quot;font-size: 1px&quot;&gt;&lt;font style=&quot;font-size:33.87px;font-family:SimSun;color:#000000;direction:ltr;letter-spacing:0px;line-height:120%;opacity:1&quot;&gt;遥感数据采集&lt;br/&gt;&lt;/font&gt;&lt;/div&gt;" tags="背景" id="4">
          <mxCell style="verticalAlign=middle;align=center;overflow=width;vsdxID=1;fillColor=#FFFFFF;gradientColor=none;shape=stencil(nZBLDoAgDERP0z3SIyjew0SURgSD+Lu9kMZoXLhwN9O+tukAlrNpJg1SzDH4QW/URgNYgZTkjA4UkwJUgGXng+6DX1zLfmoymdXo17xh5zmRJ6Q42BWCfc2oJfdAr+Yv+AP9Cb7OJ3H/2JG1HNGz/84klThPVCc=);points=[[1,0.5,0],[0.5,0,0],[0.5,0.5,0],[0.5,0.5,0]];labelBackgroundColor=none;rounded=0;html=1;whiteSpace=wrap;" parent="1" vertex="1">
            <mxGeometry x="1129" y="25" width="268" height="60" as="geometry" />
          </mxCell>
        </UserObject>
        <UserObject label="&lt;div style=&quot;font-size: 1px&quot;&gt;&lt;font style=&quot;font-size:11.29px;font-family:SimSun;color:#000000;direction:ltr;letter-spacing:0px;line-height:120%;opacity:1&quot;&gt;本地服务平台搭建〔已有资源利用+扩建建设)&lt;br/&gt;&lt;/font&gt;&lt;/div&gt;" tags="流程图" id="5">
          <mxCell style="verticalAlign=middle;align=center;overflow=width;vsdxID=4;fillColor=#FFFFFF;gradientColor=none;shape=stencil(tZLREoIgEEW/hkecFXLs3ew/mERlInBWSvv7IJxSG19qetu99yxchiW86FvRScKgd2jPclCVawk/EMaUaSUq5yvCS8KL2qJs0F5NFftOBDJUF3sLJ4xxDsIEg3vs9nmSPYVjZLUymyxsgyl8ja4TCDx5E190OtmA08AOsiTnUZuobONIGKkYVU/ROuGUNYtXaYGNpP46WmvRLKx+kLL7kH8I+Od86TyfL95/Xyut4+rM/fWueCnuGS8f);strokeColor=#000000;spacingTop=-1;spacingBottom=-1;spacingLeft=-1;spacingRight=-1;points=[[0,0.5,0],[1,0.5,0],[0.5,0,0],[0.5,0.88,0]];labelBackgroundColor=none;rounded=0;html=1;whiteSpace=wrap;" parent="1" vertex="1">
            <mxGeometry x="805" y="839" width="239" height="60" as="geometry" />
          </mxCell>
        </UserObject>
        <UserObject label="&lt;div style=&quot;font-size: 1px&quot;&gt;&lt;font style=&quot;font-size:11.29px;font-family:SimSun;color:#000000;direction:ltr;letter-spacing:0px;line-height:120%;opacity:1&quot;&gt;高分系列&lt;br/&gt;&lt;/font&gt;&lt;/div&gt;" tags="流程图" id="6">
          <mxCell style="verticalAlign=middle;align=center;overflow=width;vsdxID=8;fillColor=#FFFFFF;gradientColor=none;shape=stencil(1VNBEoMgDHwNRxyEqT7Atv9gKipTCk6kVX9fKGrVKYceeuhtN9kksyQgVnQNbwWipLNgrqKXpW0QOyJKpW4ESOsQYifEisqAqMHcdRl4y73So5t5+A5DqMuTg6+hZAycvNg5SJXUK2lKSFzK4eIyMEkzluRTXxjn6iyhUyzScOED5oPsMBjLrTR6PY4oDrXAbhyuFK83qa4Xol2F07iXve159Fduso2bzy/5Ey8OvPdZSaXCOSz52LL/boMk6nrn2IH9xbtQ+C3s9AQ=);strokeColor=#000000;spacingTop=-1;spacingBottom=-1;spacingLeft=-1;spacingRight=-1;points=[[0,0.5,0],[0.5,0,0],[0.5,1,0],[1.07,0.5,0],[1,0.5,0]];labelBackgroundColor=none;rounded=0;html=1;whiteSpace=wrap;" parent="1" vertex="1">
            <mxGeometry x="786" y="108" width="100" height="60" as="geometry" />
          </mxCell>
        </UserObject>
        <UserObject label="&lt;div style=&quot;font-size: 1px&quot;&gt;&lt;font style=&quot;font-size:11.29px;font-family:SimSun;color:#000000;direction:ltr;letter-spacing:0px;line-height:120%;opacity:1&quot;&gt;资源系列&lt;br/&gt;&lt;/font&gt;&lt;/div&gt;" tags="流程图" id="7">
          <mxCell style="verticalAlign=middle;align=center;overflow=width;vsdxID=9;fillColor=#FFFFFF;gradientColor=none;shape=stencil(1VNBEoMgDHwNRxyEqT7Atv9gKipTCk6kVX9fKGrVKYceeuhtN9kksyQgVnQNbwWipLNgrqKXpW0QOyJKpW4ESOsQYifEisqAqMHcdRl4y73So5t5+A5DqMuTg6+hZAycvNg5SJXUK2lKSFzK4eIyMEkzluRTXxjn6iyhUyzScOED5oPsMBjLrTR6PY4oDrXAbhyuFK83qa4Xol2F07iXve159Fduso2bzy/5Ey8OvPdZSaXCOSz52LL/boMk6nrn2IH9xbtQ+C3s9AQ=);strokeColor=#000000;spacingTop=-1;spacingBottom=-1;spacingLeft=-1;spacingRight=-1;points=[[0,0.5,0],[0.5,0,0],[0.5,1,0],[1.07,0.5,0],[1,0.5,0]];labelBackgroundColor=none;rounded=0;html=1;whiteSpace=wrap;" parent="1" vertex="1">
            <mxGeometry x="988" y="108" width="100" height="60" as="geometry" />
          </mxCell>
        </UserObject>
        <UserObject label="&lt;div style=&quot;font-size: 1px&quot;&gt;&lt;font style=&quot;font-size:11.29px;font-family:SimSun;color:#000000;direction:ltr;letter-spacing:0px;line-height:120%;opacity:1&quot;&gt;SAR卫星&lt;br/&gt;&lt;/font&gt;&lt;/div&gt;" tags="流程图" id="8">
          <mxCell style="verticalAlign=middle;align=center;overflow=width;vsdxID=10;fillColor=#FFFFFF;gradientColor=none;shape=stencil(1VNBEoMgDHwNRxyEqT7Atv9gKipTCk6kVX9fKGrVKYceeuhtN9kksyQgVnQNbwWipLNgrqKXpW0QOyJKpW4ESOsQYifEisqAqMHcdRl4y73So5t5+A5DqMuTg6+hZAycvNg5SJXUK2lKSFzK4eIyMEkzluRTXxjn6iyhUyzScOED5oPsMBjLrTR6PY4oDrXAbhyuFK83qa4Xol2F07iXve159Fduso2bzy/5Ey8OvPdZSaXCOSz52LL/boMk6nrn2IH9xbtQ+C3s9AQ=);strokeColor=#000000;spacingTop=-1;spacingBottom=-1;spacingLeft=-1;spacingRight=-1;points=[[0,0.5,0],[0.5,0,0],[0.5,1,0],[1.07,0.5,0],[1,0.5,0]];labelBackgroundColor=none;rounded=0;html=1;whiteSpace=wrap;" parent="1" vertex="1">
            <mxGeometry x="1213" y="108" width="100" height="60" as="geometry" />
          </mxCell>
        </UserObject>
        <UserObject label="&lt;div style=&quot;font-size: 1px&quot;&gt;&lt;font style=&quot;font-size:11.29px;font-family:SimSun;color:#000000;direction:ltr;letter-spacing:0px;line-height:120%;opacity:1&quot;&gt;商业卫星&lt;br/&gt;&lt;/font&gt;&lt;/div&gt;" tags="流程图" id="9">
          <mxCell style="verticalAlign=middle;align=center;overflow=width;vsdxID=11;fillColor=#FFFFFF;gradientColor=none;shape=stencil(1VNBEoMgDHwNRxyEqT7Atv9gKipTCk6kVX9fKGrVKYceeuhtN9kksyQgVnQNbwWipLNgrqKXpW0QOyJKpW4ESOsQYifEisqAqMHcdRl4y73So5t5+A5DqMuTg6+hZAycvNg5SJXUK2lKSFzK4eIyMEkzluRTXxjn6iyhUyzScOED5oPsMBjLrTR6PY4oDrXAbhyuFK83qa4Xol2F07iXve159Fduso2bzy/5Ey8OvPdZSaXCOSz52LL/boMk6nrn2IH9xbtQ+C3s9AQ=);strokeColor=#000000;spacingTop=-1;spacingBottom=-1;spacingLeft=-1;spacingRight=-1;points=[[0,0.5,0],[0.5,0,0],[0.5,1,0],[1.07,0.5,0],[1,0.5,0]];labelBackgroundColor=none;rounded=0;html=1;whiteSpace=wrap;" parent="1" vertex="1">
            <mxGeometry x="1392" y="108" width="100" height="60" as="geometry" />
          </mxCell>
        </UserObject>
        <UserObject label="&lt;div style=&quot;font-size: 1px&quot;&gt;&lt;font style=&quot;font-size:11.29px;font-family:SimSun;color:#000000;direction:ltr;letter-spacing:0px;line-height:120%;opacity:1&quot;&gt;国外卫星&lt;br/&gt;&lt;/font&gt;&lt;/div&gt;" tags="流程图" id="10">
          <mxCell style="verticalAlign=middle;align=center;overflow=width;vsdxID=12;fillColor=#FFFFFF;gradientColor=none;shape=stencil(1VNBEoMgDHwNRxyEqT7Atv9gKipTCk6kVX9fKGrVKYceeuhtN9kksyQgVnQNbwWipLNgrqKXpW0QOyJKpW4ESOsQYifEisqAqMHcdRl4y73So5t5+A5DqMuTg6+hZAycvNg5SJXUK2lKSFzK4eIyMEkzluRTXxjn6iyhUyzScOED5oPsMBjLrTR6PY4oDrXAbhyuFK83qa4Xol2F07iXve159Fduso2bzy/5Ey8OvPdZSaXCOSz52LL/boMk6nrn2IH9xbtQ+C3s9AQ=);strokeColor=#000000;spacingTop=-1;spacingBottom=-1;spacingLeft=-1;spacingRight=-1;points=[[0,0.5,0],[0.5,0,0],[0.5,1,0],[1.07,0.5,0],[1,0.5,0]];labelBackgroundColor=none;rounded=0;html=1;whiteSpace=wrap;" parent="1" vertex="1">
            <mxGeometry x="1595" y="108" width="100" height="60" as="geometry" />
          </mxCell>
        </UserObject>
        <UserObject label="&lt;div style=&quot;font-size: 1px&quot;&gt;&lt;font style=&quot;font-size:14.11px;font-family:SimSun;color:#000000;direction:ltr;letter-spacing:0px;line-height:120%;opacity:1&quot;&gt;四川省地质灾害隐患高分遥感应用服务中心架构设计&lt;br/&gt;&lt;/font&gt;&lt;/div&gt;" tags="背景" id="11">
          <mxCell style="verticalAlign=middle;align=center;overflow=width;vsdxID=13;fillColor=#FFFFFF;gradientColor=none;shape=stencil(nZBLDoAgDERP0z3SIyjew0SURgSD+Lu9kMZoXLhwN9O+tukAlrNpJg1SzDH4QW/URgNYgZTkjA4UkwJUgGXng+6DX1zLfmoymdXo17xh5zmRJ6Q42BWCfc2oJfdAr+Yv+AP9Cb7OJ3H/2JG1HNGz/84klThPVCc=);points=[[1,0.5,0],[0.5,0,0],[0.5,0.5,0],[0.5,0.5,0]];labelBackgroundColor=none;rounded=0;html=1;whiteSpace=wrap;" parent="1" vertex="1">
            <mxGeometry x="983" y="198" width="560" height="60" as="geometry" />
          </mxCell>
        </UserObject>
        <UserObject label="&lt;div style=&quot;font-size: 1px&quot;&gt;&lt;font style=&quot;font-size:14.11px;font-family:SimSun;color:#000000;direction:ltr;letter-spacing:0px;line-height:120%;opacity:1&quot;&gt;硬件设施&lt;br/&gt;&lt;/font&gt;&lt;/div&gt;" tags="背景" id="12">
          <mxCell style="verticalAlign=middle;align=center;overflow=width;vsdxID=14;fillColor=#FFFFFF;gradientColor=none;shape=stencil(nZBLDoAgDERP0z3SIyjew0SURgSD+Lu9kMZoXLhwN9O+tukAlrNpJg1SzDH4QW/URgNYgZTkjA4UkwJUgGXng+6DX1zLfmoymdXo17xh5zmRJ6Q42BWCfc2oJfdAr+Yv+AP9Cb7OJ3H/2JG1HNGz/84klThPVCc=);points=[[1,0.5,0],[0.5,0,0],[0.5,0.5,0],[0.5,0.5,0]];labelBackgroundColor=none;rounded=0;html=1;whiteSpace=wrap;" parent="1" vertex="1">
            <mxGeometry x="842" y="313" width="154" height="60" as="geometry" />
          </mxCell>
        </UserObject>
        <UserObject label="&lt;div style=&quot;font-size: 1px&quot;&gt;&lt;font style=&quot;font-size:14.11px;font-family:SimSun;color:#000000;direction:ltr;letter-spacing:0px;line-height:120%;opacity:1&quot;&gt;软件设施&lt;br/&gt;&lt;/font&gt;&lt;/div&gt;" tags="背景" id="13">
          <mxCell style="verticalAlign=middle;align=center;overflow=width;vsdxID=15;fillColor=#FFFFFF;gradientColor=none;shape=stencil(nZBLDoAgDERP0z3SIyjew0SURgSD+Lu9kMZoXLhwN9O+tukAlrNpJg1SzDH4QW/URgNYgZTkjA4UkwJUgGXng+6DX1zLfmoymdXo17xh5zmRJ6Q42BWCfc2oJfdAr+Yv+AP9Cb7OJ3H/2JG1HNGz/84klThPVCc=);points=[[1,0.5,0],[0.5,0,0],[0.5,0.5,0],[0.5,0.5,0]];labelBackgroundColor=none;rounded=0;html=1;whiteSpace=wrap;" parent="1" vertex="1">
            <mxGeometry x="1186" y="308" width="154" height="60" as="geometry" />
          </mxCell>
        </UserObject>
        <UserObject label="&lt;div style=&quot;font-size: 1px&quot;&gt;&lt;font style=&quot;font-size:14.11px;font-family:SimSun;color:#000000;direction:ltr;letter-spacing:0px;line-height:120%;opacity:1&quot;&gt;专业人才队伍建设&lt;br/&gt;&lt;/font&gt;&lt;/div&gt;" tags="背景" id="14">
          <mxCell style="verticalAlign=middle;align=center;overflow=width;vsdxID=16;fillColor=#FFFFFF;gradientColor=none;shape=stencil(nZBLDoAgDERP0z3SIyjew0SURgSD+Lu9kMZoXLhwN9O+tukAlrNpJg1SzDH4QW/URgNYgZTkjA4UkwJUgGXng+6DX1zLfmoymdXo17xh5zmRJ6Q42BWCfc2oJfdAr+Yv+AP9Cb7OJ3H/2JG1HNGz/84klThPVCc=);points=[[1,0.5,0],[0.5,0,0],[0.5,0.5,0],[0.5,0.5,0]];labelBackgroundColor=none;rounded=0;html=1;whiteSpace=wrap;" parent="1" vertex="1">
            <mxGeometry x="1449" y="368" width="134" height="60" as="geometry" />
          </mxCell>
        </UserObject>
        <UserObject label="&lt;div style=&quot;font-size: 1px&quot;&gt;&lt;font style=&quot;font-size:14.11px;font-family:SimSun;color:#000000;direction:ltr;letter-spacing:0px;line-height:120%;opacity:1&quot;&gt;业务支撑体系建设&lt;br/&gt;&lt;/font&gt;&lt;/div&gt;" tags="背景" id="15">
          <mxCell style="verticalAlign=middle;align=center;overflow=width;vsdxID=17;fillColor=#FFFFFF;gradientColor=none;shape=stencil(nZBLDoAgDERP0z3SIyjew0SURgSD+Lu9kMZoXLhwN9O+tukAlrNpJg1SzDH4QW/URgNYgZTkjA4UkwJUgGXng+6DX1zLfmoymdXo17xh5zmRJ6Q42BWCfc2oJfdAr+Yv+AP9Cb7OJ3H/2JG1HNGz/84klThPVCc=);points=[[1,0.5,0],[0.5,0,0],[0.5,0.5,0],[0.5,0.5,0]];labelBackgroundColor=none;rounded=0;html=1;whiteSpace=wrap;" parent="1" vertex="1">
            <mxGeometry x="1623" y="368" width="134" height="60" as="geometry" />
          </mxCell>
        </UserObject>
        <UserObject label="&lt;div style=&quot;font-size: 1px&quot;&gt;&lt;font style=&quot;font-size:11.29px;font-family:SimSun;color:#000000;direction:ltr;letter-spacing:0px;line-height:120%;opacity:1&quot;&gt;PB级存储&lt;br/&gt;&lt;/font&gt;&lt;/div&gt;" tags="流程图" id="16">
          <mxCell style="verticalAlign=middle;align=center;overflow=width;vsdxID=18;fillColor=#FFFFFF;gradientColor=none;shape=stencil(rVJREoIgED0NnzgIkx7A6h5MojIROCul3j4ILTT9aKa/fbtv9/HYRazoGt4KRElnwVxFL0vbIHZElErdCJDWRYidECsqA6IGc9dlwC33TB/dzMNPGEJfnhx8DyVjwOSFzoGqpI6oKSH7VA4XV4GJmrEkn+bCOHdnCZ1yOwPfeMB8kB0GY7mVRsdyRHGoBXZyuFK8XpS6Xoj2K73pZW17lv7JTbZws/2T//KSxs9zwWeflVQqnENcX+/fpcLtsNMT);strokeColor=#000000;spacingTop=-1;spacingBottom=-1;spacingLeft=-1;spacingRight=-1;points=[[0,0.5,0],[0.5,0,0],[0.5,1,0],[0.93,0.5,0]];labelBackgroundColor=none;rounded=0;html=1;whiteSpace=wrap;" parent="1" vertex="1">
            <mxGeometry x="749" y="403" width="100" height="60" as="geometry" />
          </mxCell>
        </UserObject>
        <UserObject label="&lt;div style=&quot;font-size: 1px&quot;&gt;&lt;font style=&quot;font-size:11.29px;font-family:SimSun;color:#000000;direction:ltr;letter-spacing:0px;line-height:120%;opacity:1&quot;&gt;万兆光纤&lt;br/&gt;&lt;/font&gt;&lt;/div&gt;" tags="流程图" id="17">
          <mxCell style="verticalAlign=middle;align=center;overflow=width;vsdxID=19;fillColor=#FFFFFF;gradientColor=none;shape=stencil(rVJREoIgED0NnzgIkx7A6h5MojIROCul3j4ILTT9aKa/fbtv9/HYRazoGt4KRElnwVxFL0vbIHZElErdCJDWRYidECsqA6IGc9dlwC33TB/dzMNPGEJfnhx8DyVjwOSFzoGqpI6oKSH7VA4XV4GJmrEkn+bCOHdnCZ1yOwPfeMB8kB0GY7mVRsdyRHGoBXZyuFK8XpS6Xoj2K73pZW17lv7JTbZws/2T//KSxs9zwWeflVQqnENcX+/fpcLtsNMT);strokeColor=#000000;spacingTop=-1;spacingBottom=-1;spacingLeft=-1;spacingRight=-1;points=[[0,0.5,0],[0.5,0,0],[0.5,1,0],[0.93,0.5,0]];labelBackgroundColor=none;rounded=0;html=1;whiteSpace=wrap;" parent="1" vertex="1">
            <mxGeometry x="854" y="403" width="100" height="60" as="geometry" />
          </mxCell>
        </UserObject>
        <UserObject label="&lt;div style=&quot;font-size: 1px&quot;&gt;&lt;font style=&quot;font-size:11.29px;font-family:SimSun;color:#000000;direction:ltr;letter-spacing:0px;line-height:120%;opacity:1&quot;&gt;高性能服务器&lt;br/&gt;&lt;/font&gt;&lt;/div&gt;" tags="流程图" id="18">
          <mxCell style="verticalAlign=middle;align=center;overflow=width;vsdxID=20;fillColor=#FFFFFF;gradientColor=none;shape=stencil(rVJREoIgED0NnzgIkx7A6h5MojIROCul3j4ILTT9aKa/fbtv9/HYRazoGt4KRElnwVxFL0vbIHZElErdCJDWRYidECsqA6IGc9dlwC33TB/dzMNPGEJfnhx8DyVjwOSFzoGqpI6oKSH7VA4XV4GJmrEkn+bCOHdnCZ1yOwPfeMB8kB0GY7mVRsdyRHGoBXZyuFK8XpS6Xoj2K73pZW17lv7JTbZws/2T//KSxs9zwWeflVQqnENcX+/fpcLtsNMT);strokeColor=#000000;spacingTop=-1;spacingBottom=-1;spacingLeft=-1;spacingRight=-1;points=[[0,0.5,0],[0.5,0,0],[0.5,1,0],[0.93,0.5,0]];labelBackgroundColor=none;rounded=0;html=1;whiteSpace=wrap;" parent="1" vertex="1">
            <mxGeometry x="959" y="403" width="100" height="60" as="geometry" />
          </mxCell>
        </UserObject>
        <UserObject label="&lt;div style=&quot;font-size: 1px&quot;&gt;&lt;font style=&quot;font-size:11.29px;font-family:SimSun;color:#000000;direction:ltr;letter-spacing:0px;line-height:120%;opacity:1&quot;&gt;分布式存储软件&lt;br/&gt;&lt;/font&gt;&lt;/div&gt;" tags="流程图" id="19">
          <mxCell style="verticalAlign=middle;align=center;overflow=width;vsdxID=21;fillColor=#FFFFFF;gradientColor=none;shape=stencil(rVJREoIgED0NnzgIkx7A6h5MojIROCul3j4ILTT9aKa/fbtv9/HYRazoGt4KRElnwVxFL0vbIHZElErdCJDWRYidECsqA6IGc9dlwC33TB/dzMNPGEJfnhx8DyVjwOSFzoGqpI6oKSH7VA4XV4GJmrEkn+bCOHdnCZ1yOwPfeMB8kB0GY7mVRsdyRHGoBXZyuFK8XpS6Xoj2K73pZW17lv7JTbZws/2T//KSxs9zwWeflVQqnENcX+/fpcLtsNMT);strokeColor=#000000;spacingTop=-1;spacingBottom=-1;spacingLeft=-1;spacingRight=-1;points=[[0,0.5,0],[0.5,0,0],[0.5,1,0],[0.93,0.5,0]];labelBackgroundColor=none;rounded=0;html=1;whiteSpace=wrap;" parent="1" vertex="1">
            <mxGeometry x="1106" y="408" width="100" height="60" as="geometry" />
          </mxCell>
        </UserObject>
        <UserObject label="&lt;div style=&quot;font-size: 1px&quot;&gt;&lt;font style=&quot;font-size:11.29px;font-family:SimSun;color:#000000;direction:ltr;letter-spacing:0px;line-height:120%;opacity:1&quot;&gt;网络设备&lt;br/&gt;&lt;/font&gt;&lt;/div&gt;" tags="流程图" id="20">
          <mxCell style="verticalAlign=middle;align=center;overflow=width;vsdxID=22;fillColor=#FFFFFF;gradientColor=none;shape=stencil(rVJREoIgED0NnzgIkx7A6h5MojIROCul3j4ILTT9aKa/fbtv9/HYRazoGt4KRElnwVxFL0vbIHZElErdCJDWRYidECsqA6IGc9dlwC33TB/dzMNPGEJfnhx8DyVjwOSFzoGqpI6oKSH7VA4XV4GJmrEkn+bCOHdnCZ1yOwPfeMB8kB0GY7mVRsdyRHGoBXZyuFK8XpS6Xoj2K73pZW17lv7JTbZws/2T//KSxs9zwWeflVQqnENcX+/fpcLtsNMT);strokeColor=#000000;spacingTop=-1;spacingBottom=-1;spacingLeft=-1;spacingRight=-1;points=[[0,0.5,0],[0.5,0,0],[0.5,1,0],[0.93,0.5,0]];labelBackgroundColor=none;rounded=0;html=1;whiteSpace=wrap;" parent="1" vertex="1">
            <mxGeometry x="1207" y="408" width="100" height="60" as="geometry" />
          </mxCell>
        </UserObject>
        <UserObject label="&lt;div style=&quot;font-size: 1px&quot;&gt;&lt;font style=&quot;font-size:11.29px;font-family:SimSun;color:#000000;direction:ltr;letter-spacing:0px;line-height:120%;opacity:1&quot;&gt;专线私有云&lt;br/&gt;&lt;/font&gt;&lt;/div&gt;" tags="流程图" id="21">
          <mxCell style="verticalAlign=middle;align=center;overflow=width;vsdxID=23;fillColor=#FFFFFF;gradientColor=none;shape=stencil(rVJREoIgED0NnzgIkx7A6h5MojIROCul3j4ILTT9aKa/fbtv9/HYRazoGt4KRElnwVxFL0vbIHZElErdCJDWRYidECsqA6IGc9dlwC33TB/dzMNPGEJfnhx8DyVjwOSFzoGqpI6oKSH7VA4XV4GJmrEkn+bCOHdnCZ1yOwPfeMB8kB0GY7mVRsdyRHGoBXZyuFK8XpS6Xoj2K73pZW17lv7JTbZws/2T//KSxs9zwWeflVQqnENcX+/fpcLtsNMT);strokeColor=#000000;spacingTop=-1;spacingBottom=-1;spacingLeft=-1;spacingRight=-1;points=[[0,0.5,0],[0.5,0,0],[0.5,1,0],[0.93,0.5,0]];labelBackgroundColor=none;rounded=0;html=1;whiteSpace=wrap;" parent="1" vertex="1">
            <mxGeometry x="1309" y="408" width="100" height="60" as="geometry" />
          </mxCell>
        </UserObject>
        <UserObject label="&lt;div style=&quot;font-size: 1px&quot;&gt;&lt;font style=&quot;font-size:11.29px;font-family:SimSun;color:#000000;direction:ltr;letter-spacing:0px;line-height:120%;opacity:1&quot;&gt;辐射校正&lt;br/&gt;&lt;/font&gt;&lt;/div&gt;" tags="流程图" id="22">
          <mxCell style="verticalAlign=middle;align=center;overflow=width;vsdxID=24;fillColor=#FFFFFF;gradientColor=none;shape=stencil(tVLREoIgEPwaHnEItKZns/9gEpWJxDko7e+DzibL0Zemt7vdvYOFJSJ3jewU4cx5sGfV69I3RBwI57ptFGgfKiIKIvLKgqrBXtsS+05GZawu9hY3DDjH02SfxinO7ohsGHv2R5Qb3U7kuyxh2zW5hFPgYL4dRn2G8uWFL57KQTsK1kuvbfvBGQm1ouEoWhlZj/dAyvVKdRN4xcvc+k9Oll/yL15C8f7TShuDkZjy3xkIEOZHFA8=);strokeColor=#000000;spacingTop=-1;spacingBottom=-1;spacingLeft=-1;spacingRight=-1;points=[[0.5,0,0],[0.5,0.5,0],[1,0.5,0]];labelBackgroundColor=none;rounded=0;html=1;whiteSpace=wrap;" parent="1" vertex="1">
            <mxGeometry x="949" y="541" width="120" height="60" as="geometry" />
          </mxCell>
        </UserObject>
        <UserObject label="&lt;div style=&quot;font-size: 1px&quot;&gt;&lt;font style=&quot;font-size:11.29px;font-family:SimSun;color:#000000;direction:ltr;letter-spacing:0px;line-height:120%;opacity:1&quot;&gt;几何校正&lt;br/&gt;&lt;/font&gt;&lt;/div&gt;" tags="流程图" id="23">
          <mxCell style="verticalAlign=middle;align=center;overflow=width;vsdxID=27;fillColor=#FFFFFF;gradientColor=none;shape=stencil(tVLREoIgEPwaHnEItKZns/9gEpWJxDko7e+DzibL0Zemt7vdvYOFJSJ3jewU4cx5sGfV69I3RBwI57ptFGgfKiIKIvLKgqrBXtsS+05GZawu9hY3DDjH02SfxinO7ohsGHv2R5Qb3U7kuyxh2zW5hFPgYL4dRn2G8uWFL57KQTsK1kuvbfvBGQm1ouEoWhlZj/dAyvVKdRN4xcvc+k9Oll/yL15C8f7TShuDkZjy3xkIEOZHFA8=);strokeColor=#000000;spacingTop=-1;spacingBottom=-1;spacingLeft=-1;spacingRight=-1;points=[[0.5,0,0],[0.5,0.5,0],[1,0.5,0]];labelBackgroundColor=none;rounded=0;html=1;whiteSpace=wrap;" parent="1" vertex="1">
            <mxGeometry x="1147" y="541" width="120" height="60" as="geometry" />
          </mxCell>
        </UserObject>
        <UserObject label="&lt;div style=&quot;font-size: 1px&quot;&gt;&lt;font style=&quot;font-size:11.29px;font-family:SimSun;color:#000000;direction:ltr;letter-spacing:0px;line-height:120%;opacity:1&quot;&gt;地形校正&lt;br/&gt;&lt;/font&gt;&lt;/div&gt;" tags="流程图" id="24">
          <mxCell style="verticalAlign=middle;align=center;overflow=width;vsdxID=28;fillColor=#FFFFFF;gradientColor=none;shape=stencil(tVLREoIgEPwaHnEItKZns/9gEpWJxDko7e+DzibL0Zemt7vdvYOFJSJ3jewU4cx5sGfV69I3RBwI57ptFGgfKiIKIvLKgqrBXtsS+05GZawu9hY3DDjH02SfxinO7ohsGHv2R5Qb3U7kuyxh2zW5hFPgYL4dRn2G8uWFL57KQTsK1kuvbfvBGQm1ouEoWhlZj/dAyvVKdRN4xcvc+k9Oll/yL15C8f7TShuDkZjy3xkIEOZHFA8=);strokeColor=#000000;spacingTop=-1;spacingBottom=-1;spacingLeft=-1;spacingRight=-1;points=[[0.5,0,0],[0.5,0.5,0],[1,0.5,0]];labelBackgroundColor=none;rounded=0;html=1;whiteSpace=wrap;" parent="1" vertex="1">
            <mxGeometry x="1345" y="541" width="120" height="60" as="geometry" />
          </mxCell>
        </UserObject>
        <UserObject label="&lt;div style=&quot;font-size: 1px&quot;&gt;&lt;font style=&quot;font-size:11.29px;font-family:SimSun;color:#000000;direction:ltr;letter-spacing:0px;line-height:120%;opacity:1&quot;&gt;镶嵌&lt;br/&gt;&lt;/font&gt;&lt;/div&gt;" tags="流程图" id="25">
          <mxCell style="verticalAlign=middle;align=center;overflow=width;vsdxID=29;fillColor=#FFFFFF;gradientColor=none;shape=stencil(tVLREoIgEPwaHnEItKZns/9gEpWJxDko7e+DzibL0Zemt7vdvYOFJSJ3jewU4cx5sGfV69I3RBwI57ptFGgfKiIKIvLKgqrBXtsS+05GZawu9hY3DDjH02SfxinO7ohsGHv2R5Qb3U7kuyxh2zW5hFPgYL4dRn2G8uWFL57KQTsK1kuvbfvBGQm1ouEoWhlZj/dAyvVKdRN4xcvc+k9Oll/yL15C8f7TShuDkZjy3xkIEOZHFA8=);strokeColor=#000000;spacingTop=-1;spacingBottom=-1;spacingLeft=-1;spacingRight=-1;points=[[0.5,0,0],[0.5,0.5,0],[1,0.5,0]];labelBackgroundColor=none;rounded=0;html=1;whiteSpace=wrap;" parent="1" vertex="1">
            <mxGeometry x="1345" y="641" width="120" height="60" as="geometry" />
          </mxCell>
        </UserObject>
        <UserObject label="&lt;div style=&quot;font-size: 1px&quot;&gt;&lt;font style=&quot;font-size:11.29px;font-family:SimSun;color:#000000;direction:ltr;letter-spacing:0px;line-height:120%;opacity:1&quot;&gt;波段融合&lt;br/&gt;&lt;/font&gt;&lt;/div&gt;" tags="流程图" id="26">
          <mxCell style="verticalAlign=middle;align=center;overflow=width;vsdxID=30;fillColor=#FFFFFF;gradientColor=none;shape=stencil(tVLREoIgEPwaHnEItKZns/9gEpWJxDko7e+DzibL0Zemt7vdvYOFJSJ3jewU4cx5sGfV69I3RBwI57ptFGgfKiIKIvLKgqrBXtsS+05GZawu9hY3DDjH02SfxinO7ohsGHv2R5Qb3U7kuyxh2zW5hFPgYL4dRn2G8uWFL57KQTsK1kuvbfvBGQm1ouEoWhlZj/dAyvVKdRN4xcvc+k9Oll/yL15C8f7TShuDkZjy3xkIEOZHFA8=);strokeColor=#000000;spacingTop=-1;spacingBottom=-1;spacingLeft=-1;spacingRight=-1;points=[[0.5,0,0],[0.5,0.5,0],[1,0.5,0]];labelBackgroundColor=none;rounded=0;html=1;whiteSpace=wrap;" parent="1" vertex="1">
            <mxGeometry x="1147" y="641" width="120" height="60" as="geometry" />
          </mxCell>
        </UserObject>
        <UserObject label="&lt;div style=&quot;font-size: 1px&quot;&gt;&lt;font style=&quot;font-size:11.29px;font-family:SimSun;color:#000000;direction:ltr;letter-spacing:0px;line-height:120%;opacity:1&quot;&gt;裁剪&lt;br/&gt;&lt;/font&gt;&lt;/div&gt;" tags="流程图" id="27">
          <mxCell style="verticalAlign=middle;align=center;overflow=width;vsdxID=31;fillColor=#FFFFFF;gradientColor=none;shape=stencil(tVLREoIgEPwaHnEItKZns/9gEpWJxDko7e+DzibL0Zemt7vdvYOFJSJ3jewU4cx5sGfV69I3RBwI57ptFGgfKiIKIvLKgqrBXtsS+05GZawu9hY3DDjH02SfxinO7ohsGHv2R5Qb3U7kuyxh2zW5hFPgYL4dRn2G8uWFL57KQTsK1kuvbfvBGQm1ouEoWhlZj/dAyvVKdRN4xcvc+k9Oll/yL15C8f7TShuDkZjy3xkIEOZHFA8=);strokeColor=#000000;spacingTop=-1;spacingBottom=-1;spacingLeft=-1;spacingRight=-1;points=[[0.5,0,0],[0.5,0.5,0],[1,0.5,0]];labelBackgroundColor=none;rounded=0;html=1;whiteSpace=wrap;" parent="1" vertex="1">
            <mxGeometry x="949" y="641" width="120" height="60" as="geometry" />
          </mxCell>
        </UserObject>
        <UserObject label="&lt;div style=&quot;font-size: 1px&quot;&gt;&lt;font style=&quot;font-size:11.29px;font-family:SimSun;color:#000000;direction:ltr;letter-spacing:0px;line-height:120%;opacity:1&quot;&gt;数据预处理&lt;br/&gt;&lt;/font&gt;&lt;/div&gt;" tags="流程图" id="28">
          <mxCell style="verticalAlign=middle;align=center;overflow=width;vsdxID=32;fillColor=#FFFFFF;gradientColor=none;shape=stencil(tVJbDsIgEDwNnyQIaTxArfcgdtsSEZoFbb294NZYG9sPE/92dmZfDEyVodM9MClCRH+GwdSxY+rApDSuAzQxRUxVTJWNR2jRX11NuNdZmaOLv+UOI9XJIpdIcSe4E+KJj6S1xs20+02txlPicNEXJ3FB2pVWL5Lr0QSOPupovPvgrMYWeBrCG6vbaQOiwgDQz9IbJ8hvc385YOXd/nJCCt72NcZacn/OL+1OKfoqqnoA);strokeColor=#000000;spacingTop=-1;spacingBottom=-1;spacingLeft=-1;spacingRight=-1;points=[[0.5,0,0],[0.5,0.5,0],[1,0.5,0]];labelBackgroundColor=none;rounded=0;html=1;whiteSpace=wrap;" parent="1" vertex="1">
            <mxGeometry x="1524" y="563" width="33" height="115" as="geometry" />
          </mxCell>
        </UserObject>
        <UserObject label="" tags="流程图" id="29">
          <mxCell style="vsdxID=33;fillColor=none;gradientColor=none;strokeColor=none;spacingTop=-1;spacingBottom=-1;spacingLeft=-1;spacingRight=-1;points=[[0.92,0.57,0],[0.92,0.57,0],[0.54,0.57,0],[0.54,0.14,0]];labelBackgroundColor=none;rounded=0;html=1;whiteSpace=wrap;" parent="1" vertex="1">
            <mxGeometry x="769" y="1198" width="154" height="40" as="geometry" />
          </mxCell>
        </UserObject>
        <mxCell id="30" style="vsdxID=34;fillColor=#FFFFFF;gradientColor=none;shape=stencil(nY9LDoAgDERP0z3SI/i5BwkoRAWC+Lu9kGokLt3NtK/NDGC9aOEVcLbE4Ea1Gxk1YAOcG6tVMDEpwBaw7l1QQ3CrleS9yGRWs9vyh4PuWL7g7CxdR+BkbAFW7Df6+BtO4k1DRcrdN3kaUWtsLw==);strokeColor=#000000;spacingTop=-3;spacingBottom=-3;spacingLeft=-3;spacingRight=-3;points=[[0.92,0.57,0],[0,0.57,0],[0.54,1,0],[0.54,0.14,0]];labelBackgroundColor=none;rounded=0;html=1;whiteSpace=wrap;" parent="29" vertex="1">
          <mxGeometry x="130" width="23" height="11" as="geometry" />
        </mxCell>
        <mxCell id="31" value="&lt;div style=&quot;font-size: 1px&quot;&gt;&lt;/div&gt;" style="verticalAlign=middle;align=center;overflow=width;vsdxID=35;fillColor=#FFFFFF;gradientColor=none;shape=stencil(UzV2Ls5ILEhVNTIoLinKz04tz0wpyVA1dlE1MsrMy0gtyiwBslSNXVWNndPyi1LTi/JL81Ig/IJEkEoQKze/DGRCBUSfAUiHkUElhGdoAOG7QZTmZOYhKYVJkqUYn1ITPQNzYhWjmmpKtEo0xwIZiBBJy8zJgQQosjx6CAKFIKFv7AoA);strokeColor=#000000;spacingTop=-1;spacingBottom=-1;spacingLeft=-1;spacingRight=-1;points=[[0.92,0.57,0],[0,0.57,0],[0.54,1,0],[0.54,0.14,0]];labelBackgroundColor=none;rounded=0;html=1;whiteSpace=wrap;" parent="29" vertex="1">
          <mxGeometry y="5" width="142" height="34" as="geometry" />
        </mxCell>
        <mxCell id="32" value="&lt;div style=&quot;font-size: 1px&quot;&gt;&lt;font style=&quot;font-size:11.29px;font-family:SimSun;color:#000000;direction:ltr;letter-spacing:0px;line-height:120%;opacity:1&quot;&gt;InSAR监测&lt;br/&gt;&lt;/font&gt;&lt;/div&gt;" style="text;vsdxID=33;fillColor=none;gradientColor=none;strokeColor=none;spacingTop=-1;spacingBottom=-1;spacingLeft=-1;spacingRight=-1;points=[[0.92,0.57,0],[0.92,0.57,0],[0.54,0.57,0],[0.54,0.14,0]];labelBackgroundColor=none;rounded=0;html=1;whiteSpace=wrap;verticalAlign=middle;align=center;overflow=width;;html=1;" parent="29" vertex="1">
          <mxGeometry width="154" height="40" as="geometry" />
        </mxCell>
        <UserObject label="&lt;div style=&quot;font-size: 1px&quot;&gt;&lt;font style=&quot;font-size:14.11px;font-family:SimSun;color:#000000;direction:ltr;letter-spacing:0px;line-height:120%;opacity:1&quot;&gt;基础平台扩建&lt;br/&gt;&lt;/font&gt;&lt;/div&gt;" tags="背景" id="33">
          <mxCell style="verticalAlign=middle;align=center;overflow=width;vsdxID=37;fillColor=#FFFFFF;gradientColor=none;shape=stencil(nZBLDoAgDERP0z3SIyjew0SURgSD+Lu9kMZoXLhwN9O+tukAlrNpJg1SzDH4QW/URgNYgZTkjA4UkwJUgGXng+6DX1zLfmoymdXo17xh5zmRJ6Q42BWCfc2oJfdAr+Yv+AP9Cb7OJ3H/2JG1HNGz/84klThPVCc=);points=[[1,0.5,0],[0.5,0,0],[0.5,0.5,0],[0.5,0.5,0]];labelBackgroundColor=none;rounded=0;html=1;whiteSpace=wrap;" parent="1" vertex="1">
            <mxGeometry x="1182" y="748" width="154" height="60" as="geometry" />
          </mxCell>
        </UserObject>
        <UserObject label="&lt;div style=&quot;font-size: 1px&quot;&gt;&lt;font style=&quot;font-size:11.29px;font-family:SimSun;color:#000000;direction:ltr;letter-spacing:0px;line-height:120%;opacity:1&quot;&gt;云计算服务(云计算+云存储+云服务)&lt;br/&gt;&lt;/font&gt;&lt;/div&gt;" tags="流程图" id="34">
          <mxCell style="verticalAlign=middle;align=center;overflow=width;vsdxID=38;fillColor=#FFFFFF;gradientColor=none;shape=stencil(tZLREoIgEEW/hkecFXLs3ew/mERlInBWSvv7IJxSG19qetu99yxchiW86FvRScKgd2jPclCVawk/EMaUaSUq5yvCS8KL2qJs0F5NFftOBDJUF3sLJ4xxDsIEg3vs9nmSPYVjZLUymyxsgyl8ja4TCDx5E190OtmA08AOsiTnUZuobONIGKkYVU/ROuGUNYtXaYGNpP46WmvRLKx+kLL7kH8I+Od86TyfL95/Xyut4+rM/fWueCnuGS8f);strokeColor=#000000;spacingTop=-1;spacingBottom=-1;spacingLeft=-1;spacingRight=-1;points=[[0,0.5,0],[1,0.5,0],[0.5,0,0],[0.5,0.88,0]];labelBackgroundColor=none;rounded=0;html=1;whiteSpace=wrap;" parent="1" vertex="1">
            <mxGeometry x="1139" y="839" width="239" height="60" as="geometry" />
          </mxCell>
        </UserObject>
        <UserObject label="&lt;div style=&quot;font-size: 1px&quot;&gt;&lt;font style=&quot;font-size:11.29px;font-family:SimSun;color:#000000;direction:ltr;letter-spacing:0px;line-height:120%;opacity:1&quot;&gt;中间平台搭建〔数据传输+安全隔离)&lt;br/&gt;&lt;/font&gt;&lt;/div&gt;" tags="流程图" id="35">
          <mxCell style="verticalAlign=middle;align=center;overflow=width;vsdxID=39;fillColor=#FFFFFF;gradientColor=none;shape=stencil(tZLREoIgEEW/hkecFXLs3ew/mERlInBWSvv7IJxSG19qetu99yxchiW86FvRScKgd2jPclCVawk/EMaUaSUq5yvCS8KL2qJs0F5NFftOBDJUF3sLJ4xxDsIEg3vs9nmSPYVjZLUymyxsgyl8ja4TCDx5E190OtmA08AOsiTnUZuobONIGKkYVU/ROuGUNYtXaYGNpP46WmvRLKx+kLL7kH8I+Od86TyfL95/Xyut4+rM/fWueCnuGS8f);strokeColor=#000000;spacingTop=-1;spacingBottom=-1;spacingLeft=-1;spacingRight=-1;points=[[0,0.5,0],[1,0.5,0],[0.5,0,0],[0.5,0.88,0]];labelBackgroundColor=none;rounded=0;html=1;whiteSpace=wrap;" parent="1" vertex="1">
            <mxGeometry x="1453" y="839" width="239" height="60" as="geometry" />
          </mxCell>
        </UserObject>
        <UserObject label="&lt;div style=&quot;font-size: 1px&quot;&gt;&lt;font style=&quot;font-size:14.11px;font-family:SimSun;color:#000000;direction:ltr;letter-spacing:0px;line-height:120%;opacity:1&quot;&gt;高分辨率卫星遥感综合运用平台建设&lt;br/&gt;&lt;/font&gt;&lt;/div&gt;" tags="背景" id="36">
          <mxCell style="verticalAlign=middle;align=center;overflow=width;vsdxID=40;fillColor=#FFFFFF;gradientColor=none;shape=stencil(nZBLDoAgDERP0z3SIyjew0SURgSD+Lu9kMZoXLhwN9O+tukAlrNpJg1SzDH4QW/URgNYgZTkjA4UkwJUgGXng+6DX1zLfmoymdXo17xh5zmRJ6Q42BWCfc2oJfdAr+Yv+AP9Cb7OJ3H/2JG1HNGz/84klThPVCc=);points=[[1,0.5,0],[0.5,0,0],[0.5,0.5,0],[0.5,0.5,0]];labelBackgroundColor=none;rounded=0;html=1;whiteSpace=wrap;" parent="1" vertex="1">
            <mxGeometry x="979" y="959" width="560" height="60" as="geometry" />
          </mxCell>
        </UserObject>
        <UserObject label="&lt;div style=&quot;font-size: 1px&quot;&gt;&lt;font style=&quot;font-size:11.29px;font-family:SimSun;color:#000000;direction:ltr;letter-spacing:0px;line-height:120%;opacity:1&quot;&gt;地质灾害隐患早期识别分析数据库&lt;br/&gt;&lt;/font&gt;&lt;/div&gt;" tags="流程图" id="37">
          <mxCell style="verticalAlign=middle;align=center;overflow=width;vsdxID=41;fillColor=#FFFFFF;gradientColor=none;shape=stencil(vZRNDoIwEIVP0yWmtCGwR7xHIwUaKyVDFby9xSJKEwwgupuf1zf5MpMiGtcFqzgiuNagTrwRqS4Q3SNCRFlwENpEiCaIxpkCnoO6lKnNK9Ypu+isrp1Da9/h7gXBN5v5ZBc8CgerlaKc1EbhWMvgaJrQa4NeDK7z08zHE3a49Vgrag+UZlqocjRbMsi5Z0Z5mWR572RbdcN59VbG0yDubBd7IcqE2WIQPAPEBK9VZkJKewlDf92ev9zdeuQ5u/sIEu3CTUkGv7+jkC05yA8hRifonJ8J3J/HlOyvRZM7);strokeColor=#000000;spacingTop=-1;spacingBottom=-1;spacingLeft=-1;spacingRight=-1;points=[[1,0.5,0],[0,0.5,0],[0.5,1,0],[0.5,0,0]];labelBackgroundColor=none;rounded=0;html=1;whiteSpace=wrap;" parent="1" vertex="1">
            <mxGeometry x="788" y="1068" width="100" height="80" as="geometry" />
          </mxCell>
        </UserObject>
        <UserObject label="&lt;div style=&quot;font-size: 1px&quot;&gt;&lt;font style=&quot;font-size:11.29px;font-family:SimSun;color:#000000;direction:ltr;letter-spacing:0px;line-height:120%;opacity:1&quot;&gt;地质灾害风险调查与管控数据库&lt;br/&gt;&lt;/font&gt;&lt;/div&gt;" tags="流程图" id="38">
          <mxCell style="verticalAlign=middle;align=center;overflow=width;vsdxID=43;fillColor=#FFFFFF;gradientColor=none;shape=stencil(vZRNDoIwEIVP0yWmtCGwR7xHIwUaKyVDFby9xSJKEwwgupuf1zf5MpMiGtcFqzgiuNagTrwRqS4Q3SNCRFlwENpEiCaIxpkCnoO6lKnNK9Ypu+isrp1Da9/h7gXBN5v5ZBc8CgerlaKc1EbhWMvgaJrQa4NeDK7z08zHE3a49Vgrag+UZlqocjRbMsi5Z0Z5mWR572RbdcN59VbG0yDubBd7IcqE2WIQPAPEBK9VZkJKewlDf92ev9zdeuQ5u/sIEu3CTUkGv7+jkC05yA8hRifonJ8J3J/HlOyvRZM7);strokeColor=#000000;spacingTop=-1;spacingBottom=-1;spacingLeft=-1;spacingRight=-1;points=[[1,0.5,0],[0,0.5,0],[0.5,1,0],[0.5,0,0]];labelBackgroundColor=none;rounded=0;html=1;whiteSpace=wrap;" parent="1" vertex="1">
            <mxGeometry x="1050" y="1068" width="100" height="80" as="geometry" />
          </mxCell>
        </UserObject>
        <UserObject label="&lt;div style=&quot;font-size: 1px&quot;&gt;&lt;font style=&quot;font-size:11.29px;font-family:SimSun;color:#000000;direction:ltr;letter-spacing:0px;line-height:120%;opacity:1&quot;&gt;地质灾害应急处置与备灾数据库&lt;br/&gt;&lt;/font&gt;&lt;/div&gt;" tags="流程图" id="39">
          <mxCell style="verticalAlign=middle;align=center;overflow=width;vsdxID=44;fillColor=#FFFFFF;gradientColor=none;shape=stencil(vZRNDoIwEIVP0yWmtCGwR7xHIwUaKyVDFby9xSJKEwwgupuf1zf5MpMiGtcFqzgiuNagTrwRqS4Q3SNCRFlwENpEiCaIxpkCnoO6lKnNK9Ypu+isrp1Da9/h7gXBN5v5ZBc8CgerlaKc1EbhWMvgaJrQa4NeDK7z08zHE3a49Vgrag+UZlqocjRbMsi5Z0Z5mWR572RbdcN59VbG0yDubBd7IcqE2WIQPAPEBK9VZkJKewlDf92ev9zdeuQ5u/sIEu3CTUkGv7+jkC05yA8hRifonJ8J3J/HlOyvRZM7);strokeColor=#000000;spacingTop=-1;spacingBottom=-1;spacingLeft=-1;spacingRight=-1;points=[[1,0.5,0],[0,0.5,0],[0.5,1,0],[0.5,0,0]];labelBackgroundColor=none;rounded=0;html=1;whiteSpace=wrap;" parent="1" vertex="1">
            <mxGeometry x="1296" y="1068" width="100" height="80" as="geometry" />
          </mxCell>
        </UserObject>
        <UserObject label="&lt;div style=&quot;font-size: 1px&quot;&gt;&lt;font style=&quot;font-size:11.29px;font-family:SimSun;color:#000000;direction:ltr;letter-spacing:0px;line-height:120%;opacity:1&quot;&gt;地质灾害工程治理与生态修复数据库&lt;br/&gt;&lt;/font&gt;&lt;/div&gt;" tags="流程图" id="40">
          <mxCell style="verticalAlign=middle;align=center;overflow=width;vsdxID=45;fillColor=#FFFFFF;gradientColor=none;shape=stencil(vZRNDoIwEIVP0yWmtCGwR7xHIwUaKyVDFby9xSJKEwwgupuf1zf5MpMiGtcFqzgiuNagTrwRqS4Q3SNCRFlwENpEiCaIxpkCnoO6lKnNK9Ypu+isrp1Da9/h7gXBN5v5ZBc8CgerlaKc1EbhWMvgaJrQa4NeDK7z08zHE3a49Vgrag+UZlqocjRbMsi5Z0Z5mWR572RbdcN59VbG0yDubBd7IcqE2WIQPAPEBK9VZkJKewlDf92ev9zdeuQ5u/sIEu3CTUkGv7+jkC05yA8hRifonJ8J3J/HlOyvRZM7);strokeColor=#000000;spacingTop=-1;spacingBottom=-1;spacingLeft=-1;spacingRight=-1;points=[[1,0.5,0],[0,0.5,0],[0.5,1,0],[0.5,0,0]];labelBackgroundColor=none;rounded=0;html=1;whiteSpace=wrap;" parent="1" vertex="1">
            <mxGeometry x="1552" y="1068" width="100" height="80" as="geometry" />
          </mxCell>
        </UserObject>
        <UserObject label="" tags="流程图" id="41">
          <mxCell style="vsdxID=46;fillColor=none;gradientColor=none;strokeColor=none;spacingTop=-1;spacingBottom=-1;spacingLeft=-1;spacingRight=-1;points=[[0.92,0.57,0],[0.92,0.57,0],[0.54,0.57,0],[0.54,0.14,0]];labelBackgroundColor=none;rounded=0;html=1;whiteSpace=wrap;" parent="1" vertex="1">
            <mxGeometry x="759" y="1272" width="154" height="40" as="geometry" />
          </mxCell>
        </UserObject>
        <mxCell id="42" style="vsdxID=47;fillColor=#FFFFFF;gradientColor=none;shape=stencil(nY9LDoAgDERP0z3SI/i5BwkoRAWC+Lu9kGokLt3NtK/NDGC9aOEVcLbE4Ea1Gxk1YAOcG6tVMDEpwBaw7l1QQ3CrleS9yGRWs9vyh4PuWL7g7CxdR+BkbAFW7Df6+BtO4k1DRcrdN3kaUWtsLw==);strokeColor=#000000;spacingTop=-3;spacingBottom=-3;spacingLeft=-3;spacingRight=-3;points=[[0.92,0.57,0],[0,0.57,0],[0.54,1,0],[0.54,0.14,0]];labelBackgroundColor=none;rounded=0;html=1;whiteSpace=wrap;" parent="41" vertex="1">
          <mxGeometry x="130" width="23" height="11" as="geometry" />
        </mxCell>
        <mxCell id="43" value="&lt;div style=&quot;font-size: 1px&quot;&gt;&lt;/div&gt;" style="verticalAlign=middle;align=center;overflow=width;vsdxID=48;fillColor=#FFFFFF;gradientColor=none;shape=stencil(UzV2Ls5ILEhVNTIoLinKz04tz0wpyVA1dlE1MsrMy0gtyiwBslSNXVWNndPyi1LTi/JL81Ig/IJEkEoQKze/DGRCBUSfAUiHkUElhGdoAOG7QZTmZOYhKYVJkqUYn1ITPQNzYhWjmmpKtEo0xwIZiBBJy8zJgQQosjx6CAKFIKFv7AoA);strokeColor=#000000;spacingTop=-1;spacingBottom=-1;spacingLeft=-1;spacingRight=-1;points=[[0.92,0.57,0],[0,0.57,0],[0.54,1,0],[0.54,0.14,0]];labelBackgroundColor=none;rounded=0;html=1;whiteSpace=wrap;" parent="41" vertex="1">
          <mxGeometry y="5" width="142" height="34" as="geometry" />
        </mxCell>
        <mxCell id="44" value="&lt;div style=&quot;font-size: 1px&quot;&gt;&lt;font style=&quot;font-size:11.29px;font-family:SimSun;color:#000000;direction:ltr;letter-spacing:0px;line-height:120%;opacity:1&quot;&gt;光学遥感变化监测&lt;br/&gt;&lt;/font&gt;&lt;/div&gt;" style="text;vsdxID=46;fillColor=none;gradientColor=none;strokeColor=none;spacingTop=-1;spacingBottom=-1;spacingLeft=-1;spacingRight=-1;points=[[0.92,0.57,0],[0.92,0.57,0],[0.54,0.57,0],[0.54,0.14,0]];labelBackgroundColor=none;rounded=0;html=1;whiteSpace=wrap;verticalAlign=middle;align=center;overflow=width;;html=1;" parent="41" vertex="1">
          <mxGeometry width="154" height="40" as="geometry" />
        </mxCell>
        <UserObject label="" tags="流程图" id="45">
          <mxCell style="vsdxID=49;fillColor=none;gradientColor=none;strokeColor=none;spacingTop=-1;spacingBottom=-1;spacingLeft=-1;spacingRight=-1;points=[[0.92,0.57,0],[0.92,0.57,0],[0.54,0.57,0],[0.54,0.14,0]];labelBackgroundColor=none;rounded=0;html=1;whiteSpace=wrap;" parent="1" vertex="1">
            <mxGeometry x="760" y="1348" width="154" height="40" as="geometry" />
          </mxCell>
        </UserObject>
        <mxCell id="46" style="vsdxID=50;fillColor=#FFFFFF;gradientColor=none;shape=stencil(nY9LDoAgDERP0z3SI/i5BwkoRAWC+Lu9kGokLt3NtK/NDGC9aOEVcLbE4Ea1Gxk1YAOcG6tVMDEpwBaw7l1QQ3CrleS9yGRWs9vyh4PuWL7g7CxdR+BkbAFW7Df6+BtO4k1DRcrdN3kaUWtsLw==);strokeColor=#000000;spacingTop=-3;spacingBottom=-3;spacingLeft=-3;spacingRight=-3;points=[[0.92,0.57,0],[0,0.57,0],[0.54,1,0],[0.54,0.14,0]];labelBackgroundColor=none;rounded=0;html=1;whiteSpace=wrap;" parent="45" vertex="1">
          <mxGeometry x="130" width="23" height="11" as="geometry" />
        </mxCell>
        <mxCell id="47" value="&lt;div style=&quot;font-size: 1px&quot;&gt;&lt;/div&gt;" style="verticalAlign=middle;align=center;overflow=width;vsdxID=51;fillColor=#FFFFFF;gradientColor=none;shape=stencil(UzV2Ls5ILEhVNTIoLinKz04tz0wpyVA1dlE1MsrMy0gtyiwBslSNXVWNndPyi1LTi/JL81Ig/IJEkEoQKze/DGRCBUSfAUiHkUElhGdoAOG7QZTmZOYhKYVJkqUYn1ITPQNzYhWjmmpKtEo0xwIZiBBJy8zJgQQosjx6CAKFIKFv7AoA);strokeColor=#000000;spacingTop=-1;spacingBottom=-1;spacingLeft=-1;spacingRight=-1;points=[[0.92,0.57,0],[0,0.57,0],[0.54,1,0],[0.54,0.14,0]];labelBackgroundColor=none;rounded=0;html=1;whiteSpace=wrap;" parent="45" vertex="1">
          <mxGeometry y="5" width="142" height="34" as="geometry" />
        </mxCell>
        <mxCell id="48" value="&lt;div style=&quot;font-size: 1px&quot;&gt;&lt;font style=&quot;font-size:11.29px;font-family:SimSun;color:#000000;direction:ltr;letter-spacing:0px;line-height:120%;opacity:1&quot;&gt;地形地貌三维重建&lt;br/&gt;&lt;/font&gt;&lt;/div&gt;" style="text;vsdxID=49;fillColor=none;gradientColor=none;strokeColor=none;spacingTop=-1;spacingBottom=-1;spacingLeft=-1;spacingRight=-1;points=[[0.92,0.57,0],[0.92,0.57,0],[0.54,0.57,0],[0.54,0.14,0]];labelBackgroundColor=none;rounded=0;html=1;whiteSpace=wrap;verticalAlign=middle;align=center;overflow=width;;html=1;" parent="45" vertex="1">
          <mxGeometry width="154" height="40" as="geometry" />
        </mxCell>
        <UserObject label="" tags="流程图" id="49">
          <mxCell style="vsdxID=55;fillColor=none;gradientColor=none;strokeColor=none;spacingTop=-1;spacingBottom=-1;spacingLeft=-1;spacingRight=-1;points=[[0.92,0.57,0],[0.92,0.57,0],[0.54,0.57,0],[0.54,0.14,0]];labelBackgroundColor=none;rounded=0;html=1;whiteSpace=wrap;" parent="1" vertex="1">
            <mxGeometry x="1031" y="1198" width="154" height="40" as="geometry" />
          </mxCell>
        </UserObject>
        <mxCell id="50" style="vsdxID=56;fillColor=#FFFFFF;gradientColor=none;shape=stencil(nY9LDoAgDERP0z3SI/i5BwkoRAWC+Lu9kGokLt3NtK/NDGC9aOEVcLbE4Ea1Gxk1YAOcG6tVMDEpwBaw7l1QQ3CrleS9yGRWs9vyh4PuWL7g7CxdR+BkbAFW7Df6+BtO4k1DRcrdN3kaUWtsLw==);strokeColor=#000000;spacingTop=-3;spacingBottom=-3;spacingLeft=-3;spacingRight=-3;points=[[0.92,0.57,0],[0,0.57,0],[0.54,1,0],[0.54,0.14,0]];labelBackgroundColor=none;rounded=0;html=1;whiteSpace=wrap;" parent="49" vertex="1">
          <mxGeometry x="130" width="23" height="11" as="geometry" />
        </mxCell>
        <mxCell id="51" value="&lt;div style=&quot;font-size: 1px&quot;&gt;&lt;/div&gt;" style="verticalAlign=middle;align=center;overflow=width;vsdxID=57;fillColor=#FFFFFF;gradientColor=none;shape=stencil(UzV2Ls5ILEhVNTIoLinKz04tz0wpyVA1dlE1MsrMy0gtyiwBslSNXVWNndPyi1LTi/JL81Ig/IJEkEoQKze/DGRCBUSfAUiHkUElhGdoAOG7QZTmZOYhKYVJkqUYn1ITPQNzYhWjmmpKtEo0xwIZiBBJy8zJgQQosjx6CAKFIKFv7AoA);strokeColor=#000000;spacingTop=-1;spacingBottom=-1;spacingLeft=-1;spacingRight=-1;points=[[0.92,0.57,0],[0,0.57,0],[0.54,1,0],[0.54,0.14,0]];labelBackgroundColor=none;rounded=0;html=1;whiteSpace=wrap;" parent="49" vertex="1">
          <mxGeometry y="5" width="142" height="34" as="geometry" />
        </mxCell>
        <mxCell id="52" value="&lt;div style=&quot;font-size: 1px&quot;&gt;&lt;font style=&quot;font-size:11.29px;font-family:SimSun;color:#000000;direction:ltr;letter-spacing:0px;line-height:120%;opacity:1&quot;&gt;地质灾害点调查&lt;br/&gt;&lt;/font&gt;&lt;/div&gt;" style="text;vsdxID=55;fillColor=none;gradientColor=none;strokeColor=none;spacingTop=-1;spacingBottom=-1;spacingLeft=-1;spacingRight=-1;points=[[0.92,0.57,0],[0.92,0.57,0],[0.54,0.57,0],[0.54,0.14,0]];labelBackgroundColor=none;rounded=0;html=1;whiteSpace=wrap;verticalAlign=middle;align=center;overflow=width;;html=1;" parent="49" vertex="1">
          <mxGeometry width="154" height="40" as="geometry" />
        </mxCell>
        <UserObject label="" tags="流程图" id="53">
          <mxCell style="vsdxID=58;fillColor=none;gradientColor=none;strokeColor=none;spacingTop=-1;spacingBottom=-1;spacingLeft=-1;spacingRight=-1;points=[[0.92,0.57,0],[0.92,0.57,0],[0.54,0.57,0],[0.54,0.14,0]];labelBackgroundColor=none;rounded=0;html=1;whiteSpace=wrap;" parent="1" vertex="1">
            <mxGeometry x="1020" y="1272" width="154" height="40" as="geometry" />
          </mxCell>
        </UserObject>
        <mxCell id="54" style="vsdxID=59;fillColor=#FFFFFF;gradientColor=none;shape=stencil(nY9LDoAgDERP0z3SI/i5BwkoRAWC+Lu9kGokLt3NtK/NDGC9aOEVcLbE4Ea1Gxk1YAOcG6tVMDEpwBaw7l1QQ3CrleS9yGRWs9vyh4PuWL7g7CxdR+BkbAFW7Df6+BtO4k1DRcrdN3kaUWtsLw==);strokeColor=#000000;spacingTop=-3;spacingBottom=-3;spacingLeft=-3;spacingRight=-3;points=[[0.92,0.57,0],[0,0.57,0],[0.54,1,0],[0.54,0.14,0]];labelBackgroundColor=none;rounded=0;html=1;whiteSpace=wrap;" parent="53" vertex="1">
          <mxGeometry x="130" width="23" height="11" as="geometry" />
        </mxCell>
        <mxCell id="55" value="&lt;div style=&quot;font-size: 1px&quot;&gt;&lt;/div&gt;" style="verticalAlign=middle;align=center;overflow=width;vsdxID=60;fillColor=#FFFFFF;gradientColor=none;shape=stencil(UzV2Ls5ILEhVNTIoLinKz04tz0wpyVA1dlE1MsrMy0gtyiwBslSNXVWNndPyi1LTi/JL81Ig/IJEkEoQKze/DGRCBUSfAUiHkUElhGdoAOG7QZTmZOYhKYVJkqUYn1ITPQNzYhWjmmpKtEo0xwIZiBBJy8zJgQQosjx6CAKFIKFv7AoA);strokeColor=#000000;spacingTop=-1;spacingBottom=-1;spacingLeft=-1;spacingRight=-1;points=[[0.92,0.57,0],[0,0.57,0],[0.54,1,0],[0.54,0.14,0]];labelBackgroundColor=none;rounded=0;html=1;whiteSpace=wrap;" parent="53" vertex="1">
          <mxGeometry y="5" width="142" height="34" as="geometry" />
        </mxCell>
        <mxCell id="56" value="&lt;div style=&quot;font-size: 1px&quot;&gt;&lt;font style=&quot;font-size:11.29px;font-family:SimSun;color:#000000;direction:ltr;letter-spacing:0px;line-height:120%;opacity:1&quot;&gt;承载体调查&lt;br/&gt;&lt;/font&gt;&lt;/div&gt;" style="text;vsdxID=58;fillColor=none;gradientColor=none;strokeColor=none;spacingTop=-1;spacingBottom=-1;spacingLeft=-1;spacingRight=-1;points=[[0.92,0.57,0],[0.92,0.57,0],[0.54,0.57,0],[0.54,0.14,0]];labelBackgroundColor=none;rounded=0;html=1;whiteSpace=wrap;verticalAlign=middle;align=center;overflow=width;;html=1;" parent="53" vertex="1">
          <mxGeometry width="154" height="40" as="geometry" />
        </mxCell>
        <UserObject label="" tags="流程图" id="57">
          <mxCell style="vsdxID=61;fillColor=none;gradientColor=none;strokeColor=none;spacingTop=-1;spacingBottom=-1;spacingLeft=-1;spacingRight=-1;points=[[0.92,0.57,0],[0.92,0.57,0],[0.54,0.57,0],[0.54,0.14,0]];labelBackgroundColor=none;rounded=0;html=1;whiteSpace=wrap;" parent="1" vertex="1">
            <mxGeometry x="1022" y="1348" width="154" height="40" as="geometry" />
          </mxCell>
        </UserObject>
        <mxCell id="58" style="vsdxID=62;fillColor=#FFFFFF;gradientColor=none;shape=stencil(nY9LDoAgDERP0z3SI/i5BwkoRAWC+Lu9kGokLt3NtK/NDGC9aOEVcLbE4Ea1Gxk1YAOcG6tVMDEpwBaw7l1QQ3CrleS9yGRWs9vyh4PuWL7g7CxdR+BkbAFW7Df6+BtO4k1DRcrdN3kaUWtsLw==);strokeColor=#000000;spacingTop=-3;spacingBottom=-3;spacingLeft=-3;spacingRight=-3;points=[[0.92,0.57,0],[0,0.57,0],[0.54,1,0],[0.54,0.14,0]];labelBackgroundColor=none;rounded=0;html=1;whiteSpace=wrap;" parent="57" vertex="1">
          <mxGeometry x="130" width="23" height="11" as="geometry" />
        </mxCell>
        <mxCell id="59" value="&lt;div style=&quot;font-size: 1px&quot;&gt;&lt;/div&gt;" style="verticalAlign=middle;align=center;overflow=width;vsdxID=63;fillColor=#FFFFFF;gradientColor=none;shape=stencil(UzV2Ls5ILEhVNTIoLinKz04tz0wpyVA1dlE1MsrMy0gtyiwBslSNXVWNndPyi1LTi/JL81Ig/IJEkEoQKze/DGRCBUSfAUiHkUElhGdoAOG7QZTmZOYhKYVJkqUYn1ITPQNzYhWjmmpKtEo0xwIZiBBJy8zJgQQosjx6CAKFIKFv7AoA);strokeColor=#000000;spacingTop=-1;spacingBottom=-1;spacingLeft=-1;spacingRight=-1;points=[[0.92,0.57,0],[0,0.57,0],[0.54,1,0],[0.54,0.14,0]];labelBackgroundColor=none;rounded=0;html=1;whiteSpace=wrap;" parent="57" vertex="1">
          <mxGeometry y="5" width="142" height="34" as="geometry" />
        </mxCell>
        <mxCell id="60" value="&lt;div style=&quot;font-size: 1px&quot;&gt;&lt;font style=&quot;font-size:11.29px;font-family:SimSun;color:#000000;direction:ltr;letter-spacing:0px;line-height:120%;opacity:1&quot;&gt;区域控制调查&lt;br/&gt;&lt;/font&gt;&lt;/div&gt;" style="text;vsdxID=61;fillColor=none;gradientColor=none;strokeColor=none;spacingTop=-1;spacingBottom=-1;spacingLeft=-1;spacingRight=-1;points=[[0.92,0.57,0],[0.92,0.57,0],[0.54,0.57,0],[0.54,0.14,0]];labelBackgroundColor=none;rounded=0;html=1;whiteSpace=wrap;verticalAlign=middle;align=center;overflow=width;;html=1;" parent="57" vertex="1">
          <mxGeometry width="154" height="40" as="geometry" />
        </mxCell>
        <UserObject label="" tags="流程图" id="61">
          <mxCell style="vsdxID=64;fillColor=none;gradientColor=none;strokeColor=none;spacingTop=-1;spacingBottom=-1;spacingLeft=-1;spacingRight=-1;points=[[0.92,0.57,0],[0.92,0.57,0],[0.54,0.57,0],[0.54,0.14,0]];labelBackgroundColor=none;rounded=0;html=1;whiteSpace=wrap;" parent="1" vertex="1">
            <mxGeometry x="1277" y="1198" width="154" height="40" as="geometry" />
          </mxCell>
        </UserObject>
        <mxCell id="62" style="vsdxID=65;fillColor=#FFFFFF;gradientColor=none;shape=stencil(nY9LDoAgDERP0z3SI/i5BwkoRAWC+Lu9kGokLt3NtK/NDGC9aOEVcLbE4Ea1Gxk1YAOcG6tVMDEpwBaw7l1QQ3CrleS9yGRWs9vyh4PuWL7g7CxdR+BkbAFW7Df6+BtO4k1DRcrdN3kaUWtsLw==);strokeColor=#000000;spacingTop=-3;spacingBottom=-3;spacingLeft=-3;spacingRight=-3;points=[[0.92,0.57,0],[0,0.57,0],[0.54,1,0],[0.54,0.14,0]];labelBackgroundColor=none;rounded=0;html=1;whiteSpace=wrap;" parent="61" vertex="1">
          <mxGeometry x="130" width="23" height="11" as="geometry" />
        </mxCell>
        <mxCell id="63" value="&lt;div style=&quot;font-size: 1px&quot;&gt;&lt;/div&gt;" style="verticalAlign=middle;align=center;overflow=width;vsdxID=66;fillColor=#FFFFFF;gradientColor=none;shape=stencil(UzV2Ls5ILEhVNTIoLinKz04tz0wpyVA1dlE1MsrMy0gtyiwBslSNXVWNndPyi1LTi/JL81Ig/IJEkEoQKze/DGRCBUSfAUiHkUElhGdoAOG7QZTmZOYhKYVJkqUYn1ITPQNzYhWjmmpKtEo0xwIZiBBJy8zJgQQosjx6CAKFIKFv7AoA);strokeColor=#000000;spacingTop=-1;spacingBottom=-1;spacingLeft=-1;spacingRight=-1;points=[[0.92,0.57,0],[0,0.57,0],[0.54,1,0],[0.54,0.14,0]];labelBackgroundColor=none;rounded=0;html=1;whiteSpace=wrap;" parent="61" vertex="1">
          <mxGeometry y="5" width="142" height="34" as="geometry" />
        </mxCell>
        <mxCell id="64" value="&lt;div style=&quot;font-size: 1px&quot;&gt;&lt;font style=&quot;font-size:11.29px;font-family:SimSun;color:#000000;direction:ltr;letter-spacing:0px;line-height:120%;opacity:1&quot;&gt;三维实景模型建设&lt;br/&gt;&lt;/font&gt;&lt;/div&gt;" style="text;vsdxID=64;fillColor=none;gradientColor=none;strokeColor=none;spacingTop=-1;spacingBottom=-1;spacingLeft=-1;spacingRight=-1;points=[[0.92,0.57,0],[0.92,0.57,0],[0.54,0.57,0],[0.54,0.14,0]];labelBackgroundColor=none;rounded=0;html=1;whiteSpace=wrap;verticalAlign=middle;align=center;overflow=width;;html=1;" parent="61" vertex="1">
          <mxGeometry width="154" height="40" as="geometry" />
        </mxCell>
        <UserObject label="" tags="流程图" id="65">
          <mxCell style="vsdxID=67;fillColor=none;gradientColor=none;strokeColor=none;spacingTop=-1;spacingBottom=-1;spacingLeft=-1;spacingRight=-1;points=[[0.92,0.57,0],[0.92,0.57,0],[0.54,0.57,0],[0.54,0.14,0]];labelBackgroundColor=none;rounded=0;html=1;whiteSpace=wrap;" parent="1" vertex="1">
            <mxGeometry x="1267" y="1272" width="154" height="40" as="geometry" />
          </mxCell>
        </UserObject>
        <mxCell id="66" style="vsdxID=68;fillColor=#FFFFFF;gradientColor=none;shape=stencil(nY9LDoAgDERP0z3SI/i5BwkoRAWC+Lu9kGokLt3NtK/NDGC9aOEVcLbE4Ea1Gxk1YAOcG6tVMDEpwBaw7l1QQ3CrleS9yGRWs9vyh4PuWL7g7CxdR+BkbAFW7Df6+BtO4k1DRcrdN3kaUWtsLw==);strokeColor=#000000;spacingTop=-3;spacingBottom=-3;spacingLeft=-3;spacingRight=-3;points=[[0.92,0.57,0],[0,0.57,0],[0.54,1,0],[0.54,0.14,0]];labelBackgroundColor=none;rounded=0;html=1;whiteSpace=wrap;" parent="65" vertex="1">
          <mxGeometry x="130" width="23" height="11" as="geometry" />
        </mxCell>
        <mxCell id="67" value="&lt;div style=&quot;font-size: 1px&quot;&gt;&lt;/div&gt;" style="verticalAlign=middle;align=center;overflow=width;vsdxID=69;fillColor=#FFFFFF;gradientColor=none;shape=stencil(UzV2Ls5ILEhVNTIoLinKz04tz0wpyVA1dlE1MsrMy0gtyiwBslSNXVWNndPyi1LTi/JL81Ig/IJEkEoQKze/DGRCBUSfAUiHkUElhGdoAOG7QZTmZOYhKYVJkqUYn1ITPQNzYhWjmmpKtEo0xwIZiBBJy8zJgQQosjx6CAKFIKFv7AoA);strokeColor=#000000;spacingTop=-1;spacingBottom=-1;spacingLeft=-1;spacingRight=-1;points=[[0.92,0.57,0],[0,0.57,0],[0.54,1,0],[0.54,0.14,0]];labelBackgroundColor=none;rounded=0;html=1;whiteSpace=wrap;" parent="65" vertex="1">
          <mxGeometry y="5" width="142" height="34" as="geometry" />
        </mxCell>
        <mxCell id="68" value="&lt;div style=&quot;font-size: 1px&quot;&gt;&lt;font style=&quot;font-size:11.29px;font-family:SimSun;color:#000000;direction:ltr;letter-spacing:0px;line-height:120%;opacity:1&quot;&gt;应急地图数据库&lt;br/&gt;&lt;/font&gt;&lt;/div&gt;" style="text;vsdxID=67;fillColor=none;gradientColor=none;strokeColor=none;spacingTop=-1;spacingBottom=-1;spacingLeft=-1;spacingRight=-1;points=[[0.92,0.57,0],[0.92,0.57,0],[0.54,0.57,0],[0.54,0.14,0]];labelBackgroundColor=none;rounded=0;html=1;whiteSpace=wrap;verticalAlign=middle;align=center;overflow=width;;html=1;" parent="65" vertex="1">
          <mxGeometry width="154" height="40" as="geometry" />
        </mxCell>
        <UserObject label="" tags="流程图" id="69">
          <mxCell style="vsdxID=70;fillColor=none;gradientColor=none;strokeColor=none;spacingTop=-1;spacingBottom=-1;spacingLeft=-1;spacingRight=-1;points=[[0.92,0.57,0],[0.92,0.57,0],[0.54,0.57,0],[0.54,0.14,0]];labelBackgroundColor=none;rounded=0;html=1;whiteSpace=wrap;" parent="1" vertex="1">
            <mxGeometry x="1268" y="1348" width="154" height="40" as="geometry" />
          </mxCell>
        </UserObject>
        <mxCell id="70" style="vsdxID=71;fillColor=#FFFFFF;gradientColor=none;shape=stencil(nY9LDoAgDERP0z3SI/i5BwkoRAWC+Lu9kGokLt3NtK/NDGC9aOEVcLbE4Ea1Gxk1YAOcG6tVMDEpwBaw7l1QQ3CrleS9yGRWs9vyh4PuWL7g7CxdR+BkbAFW7Df6+BtO4k1DRcrdN3kaUWtsLw==);strokeColor=#000000;spacingTop=-3;spacingBottom=-3;spacingLeft=-3;spacingRight=-3;points=[[0.92,0.57,0],[0,0.57,0],[0.54,1,0],[0.54,0.14,0]];labelBackgroundColor=none;rounded=0;html=1;whiteSpace=wrap;" parent="69" vertex="1">
          <mxGeometry x="130" width="23" height="11" as="geometry" />
        </mxCell>
        <mxCell id="71" value="&lt;div style=&quot;font-size: 1px&quot;&gt;&lt;/div&gt;" style="verticalAlign=middle;align=center;overflow=width;vsdxID=72;fillColor=#FFFFFF;gradientColor=none;shape=stencil(UzV2Ls5ILEhVNTIoLinKz04tz0wpyVA1dlE1MsrMy0gtyiwBslSNXVWNndPyi1LTi/JL81Ig/IJEkEoQKze/DGRCBUSfAUiHkUElhGdoAOG7QZTmZOYhKYVJkqUYn1ITPQNzYhWjmmpKtEo0xwIZiBBJy8zJgQQosjx6CAKFIKFv7AoA);strokeColor=#000000;spacingTop=-1;spacingBottom=-1;spacingLeft=-1;spacingRight=-1;points=[[0.92,0.57,0],[0,0.57,0],[0.54,1,0],[0.54,0.14,0]];labelBackgroundColor=none;rounded=0;html=1;whiteSpace=wrap;" parent="69" vertex="1">
          <mxGeometry y="5" width="142" height="34" as="geometry" />
        </mxCell>
        <mxCell id="72" value="&lt;div style=&quot;font-size: 1px&quot;&gt;&lt;font style=&quot;font-size:11.29px;font-family:SimSun;color:#000000;direction:ltr;letter-spacing:0px;line-height:120%;opacity:1&quot;&gt;应急备灾库建设&lt;br/&gt;&lt;/font&gt;&lt;/div&gt;" style="text;vsdxID=70;fillColor=none;gradientColor=none;strokeColor=none;spacingTop=-1;spacingBottom=-1;spacingLeft=-1;spacingRight=-1;points=[[0.92,0.57,0],[0.92,0.57,0],[0.54,0.57,0],[0.54,0.14,0]];labelBackgroundColor=none;rounded=0;html=1;whiteSpace=wrap;verticalAlign=middle;align=center;overflow=width;;html=1;" parent="69" vertex="1">
          <mxGeometry width="154" height="40" as="geometry" />
        </mxCell>
        <UserObject label="" tags="流程图" id="73">
          <mxCell style="vsdxID=73;fillColor=none;gradientColor=none;strokeColor=none;spacingTop=-1;spacingBottom=-1;spacingLeft=-1;spacingRight=-1;points=[[0.92,0.57,0],[0.92,0.57,0],[0.54,0.57,0],[0.54,0.14,0]];labelBackgroundColor=none;rounded=0;html=1;whiteSpace=wrap;" parent="1" vertex="1">
            <mxGeometry x="1533" y="1198" width="154" height="40" as="geometry" />
          </mxCell>
        </UserObject>
        <mxCell id="74" style="vsdxID=74;fillColor=#FFFFFF;gradientColor=none;shape=stencil(nY9LDoAgDERP0z3SI/i5BwkoRAWC+Lu9kGokLt3NtK/NDGC9aOEVcLbE4Ea1Gxk1YAOcG6tVMDEpwBaw7l1QQ3CrleS9yGRWs9vyh4PuWL7g7CxdR+BkbAFW7Df6+BtO4k1DRcrdN3kaUWtsLw==);strokeColor=#000000;spacingTop=-3;spacingBottom=-3;spacingLeft=-3;spacingRight=-3;points=[[0.92,0.57,0],[0,0.57,0],[0.54,1,0],[0.54,0.14,0]];labelBackgroundColor=none;rounded=0;html=1;whiteSpace=wrap;" parent="73" vertex="1">
          <mxGeometry x="130" width="23" height="11" as="geometry" />
        </mxCell>
        <mxCell id="75" value="&lt;div style=&quot;font-size: 1px&quot;&gt;&lt;/div&gt;" style="verticalAlign=middle;align=center;overflow=width;vsdxID=75;fillColor=#FFFFFF;gradientColor=none;shape=stencil(UzV2Ls5ILEhVNTIoLinKz04tz0wpyVA1dlE1MsrMy0gtyiwBslSNXVWNndPyi1LTi/JL81Ig/IJEkEoQKze/DGRCBUSfAUiHkUElhGdoAOG7QZTmZOYhKYVJkqUYn1ITPQNzYhWjmmpKtEo0xwIZiBBJy8zJgQQosjx6CAKFIKFv7AoA);strokeColor=#000000;spacingTop=-1;spacingBottom=-1;spacingLeft=-1;spacingRight=-1;points=[[0.92,0.57,0],[0,0.57,0],[0.54,1,0],[0.54,0.14,0]];labelBackgroundColor=none;rounded=0;html=1;whiteSpace=wrap;" parent="73" vertex="1">
          <mxGeometry y="5" width="142" height="34" as="geometry" />
        </mxCell>
        <mxCell id="76" value="&lt;div style=&quot;font-size: 1px&quot;&gt;&lt;font style=&quot;font-size:11.29px;font-family:SimSun;color:#000000;direction:ltr;letter-spacing:0px;line-height:120%;opacity:1&quot;&gt;生态空间生态修复&lt;br/&gt;&lt;/font&gt;&lt;/div&gt;" style="text;vsdxID=73;fillColor=none;gradientColor=none;strokeColor=none;spacingTop=-1;spacingBottom=-1;spacingLeft=-1;spacingRight=-1;points=[[0.92,0.57,0],[0.92,0.57,0],[0.54,0.57,0],[0.54,0.14,0]];labelBackgroundColor=none;rounded=0;html=1;whiteSpace=wrap;verticalAlign=middle;align=center;overflow=width;;html=1;" parent="73" vertex="1">
          <mxGeometry width="154" height="40" as="geometry" />
        </mxCell>
        <UserObject label="" tags="流程图" id="77">
          <mxCell style="vsdxID=76;fillColor=none;gradientColor=none;strokeColor=none;spacingTop=-1;spacingBottom=-1;spacingLeft=-1;spacingRight=-1;points=[[0.92,0.57,0],[0.92,0.57,0],[0.54,0.57,0],[0.54,0.14,0]];labelBackgroundColor=none;rounded=0;html=1;whiteSpace=wrap;" parent="1" vertex="1">
            <mxGeometry x="1523" y="1272" width="154" height="40" as="geometry" />
          </mxCell>
        </UserObject>
        <mxCell id="78" style="vsdxID=77;fillColor=#FFFFFF;gradientColor=none;shape=stencil(nY9LDoAgDERP0z3SI/i5BwkoRAWC+Lu9kGokLt3NtK/NDGC9aOEVcLbE4Ea1Gxk1YAOcG6tVMDEpwBaw7l1QQ3CrleS9yGRWs9vyh4PuWL7g7CxdR+BkbAFW7Df6+BtO4k1DRcrdN3kaUWtsLw==);strokeColor=#000000;spacingTop=-3;spacingBottom=-3;spacingLeft=-3;spacingRight=-3;points=[[0.92,0.57,0],[0,0.57,0],[0.54,1,0],[0.54,0.14,0]];labelBackgroundColor=none;rounded=0;html=1;whiteSpace=wrap;" parent="77" vertex="1">
          <mxGeometry x="130" width="23" height="11" as="geometry" />
        </mxCell>
        <mxCell id="79" value="&lt;div style=&quot;font-size: 1px&quot;&gt;&lt;/div&gt;" style="verticalAlign=middle;align=center;overflow=width;vsdxID=78;fillColor=#FFFFFF;gradientColor=none;shape=stencil(UzV2Ls5ILEhVNTIoLinKz04tz0wpyVA1dlE1MsrMy0gtyiwBslSNXVWNndPyi1LTi/JL81Ig/IJEkEoQKze/DGRCBUSfAUiHkUElhGdoAOG7QZTmZOYhKYVJkqUYn1ITPQNzYhWjmmpKtEo0xwIZiBBJy8zJgQQosjx6CAKFIKFv7AoA);strokeColor=#000000;spacingTop=-1;spacingBottom=-1;spacingLeft=-1;spacingRight=-1;points=[[0.92,0.57,0],[0,0.57,0],[0.54,1,0],[0.54,0.14,0]];labelBackgroundColor=none;rounded=0;html=1;whiteSpace=wrap;" parent="77" vertex="1">
          <mxGeometry y="5" width="142" height="34" as="geometry" />
        </mxCell>
        <mxCell id="80" value="&lt;div style=&quot;font-size: 1px&quot;&gt;&lt;font style=&quot;font-size:11.29px;font-family:SimSun;color:#000000;direction:ltr;letter-spacing:0px;line-height:120%;opacity:1&quot;&gt;农业空间生态修复&lt;br/&gt;&lt;/font&gt;&lt;/div&gt;" style="text;vsdxID=76;fillColor=none;gradientColor=none;strokeColor=none;spacingTop=-1;spacingBottom=-1;spacingLeft=-1;spacingRight=-1;points=[[0.92,0.57,0],[0.92,0.57,0],[0.54,0.57,0],[0.54,0.14,0]];labelBackgroundColor=none;rounded=0;html=1;whiteSpace=wrap;verticalAlign=middle;align=center;overflow=width;;html=1;" parent="77" vertex="1">
          <mxGeometry width="154" height="40" as="geometry" />
        </mxCell>
        <UserObject label="" tags="流程图" id="81">
          <mxCell style="vsdxID=79;fillColor=none;gradientColor=none;strokeColor=none;spacingTop=-1;spacingBottom=-1;spacingLeft=-1;spacingRight=-1;points=[[0.92,0.57,0],[0.92,0.57,0],[0.54,0.57,0],[0.54,0.14,0]];labelBackgroundColor=none;rounded=0;html=1;whiteSpace=wrap;" parent="1" vertex="1">
            <mxGeometry x="1524" y="1348" width="154" height="40" as="geometry" />
          </mxCell>
        </UserObject>
        <mxCell id="82" style="vsdxID=80;fillColor=#FFFFFF;gradientColor=none;shape=stencil(nY9LDoAgDERP0z3SI/i5BwkoRAWC+Lu9kGokLt3NtK/NDGC9aOEVcLbE4Ea1Gxk1YAOcG6tVMDEpwBaw7l1QQ3CrleS9yGRWs9vyh4PuWL7g7CxdR+BkbAFW7Df6+BtO4k1DRcrdN3kaUWtsLw==);strokeColor=#000000;spacingTop=-3;spacingBottom=-3;spacingLeft=-3;spacingRight=-3;points=[[0.92,0.57,0],[0,0.57,0],[0.54,1,0],[0.54,0.14,0]];labelBackgroundColor=none;rounded=0;html=1;whiteSpace=wrap;" parent="81" vertex="1">
          <mxGeometry x="130" width="23" height="11" as="geometry" />
        </mxCell>
        <mxCell id="83" value="&lt;div style=&quot;font-size: 1px&quot;&gt;&lt;/div&gt;" style="verticalAlign=middle;align=center;overflow=width;vsdxID=81;fillColor=#FFFFFF;gradientColor=none;shape=stencil(UzV2Ls5ILEhVNTIoLinKz04tz0wpyVA1dlE1MsrMy0gtyiwBslSNXVWNndPyi1LTi/JL81Ig/IJEkEoQKze/DGRCBUSfAUiHkUElhGdoAOG7QZTmZOYhKYVJkqUYn1ITPQNzYhWjmmpKtEo0xwIZiBBJy8zJgQQosjx6CAKFIKFv7AoA);strokeColor=#000000;spacingTop=-1;spacingBottom=-1;spacingLeft=-1;spacingRight=-1;points=[[0.92,0.57,0],[0,0.57,0],[0.54,1,0],[0.54,0.14,0]];labelBackgroundColor=none;rounded=0;html=1;whiteSpace=wrap;" parent="81" vertex="1">
          <mxGeometry y="5" width="142" height="34" as="geometry" />
        </mxCell>
        <mxCell id="84" value="&lt;div style=&quot;font-size: 1px&quot;&gt;&lt;font style=&quot;font-size:11.29px;font-family:SimSun;color:#000000;direction:ltr;letter-spacing:0px;line-height:120%;opacity:1&quot;&gt;城镇空间生态修复&lt;br/&gt;&lt;/font&gt;&lt;/div&gt;" style="text;vsdxID=79;fillColor=none;gradientColor=none;strokeColor=none;spacingTop=-1;spacingBottom=-1;spacingLeft=-1;spacingRight=-1;points=[[0.92,0.57,0],[0.92,0.57,0],[0.54,0.57,0],[0.54,0.14,0]];labelBackgroundColor=none;rounded=0;html=1;whiteSpace=wrap;verticalAlign=middle;align=center;overflow=width;;html=1;" parent="81" vertex="1">
          <mxGeometry width="154" height="40" as="geometry" />
        </mxCell>
        <UserObject label="&lt;div style=&quot;font-size: 1px&quot;&gt;&lt;font style=&quot;font-size:11.29px;font-family:SimSun;color:#000000;direction:ltr;letter-spacing:0px;line-height:120%;opacity:1&quot;&gt;地质灾害高分遥感运用数据库&lt;br/&gt;&lt;/font&gt;&lt;/div&gt;" tags="流程图" id="85">
          <mxCell style="verticalAlign=middle;align=center;overflow=width;vsdxID=82;fillColor=#FFFFFF;gradientColor=none;shape=stencil(vZRNDoIwEIVP0yWmtCGwR7xHIwUaKyVDFby9xSJKEwwgupuf1zf5MpMiGtcFqzgiuNagTrwRqS4Q3SNCRFlwENpEiCaIxpkCnoO6lKnNK9Ypu+isrp1Da9/h7gXBN5v5ZBc8CgerlaKc1EbhWMvgaJrQa4NeDK7z08zHE3a49Vgrag+UZlqocjRbMsi5Z0Z5mWR572RbdcN59VbG0yDubBd7IcqE2WIQPAPEBK9VZkJKewlDf92ev9zdeuQ5u/sIEu3CTUkGv7+jkC05yA8hRifonJ8J3J/HlOyvRZM7);strokeColor=#000000;spacingTop=-1;spacingBottom=-1;spacingLeft=-1;spacingRight=-1;points=[[1,0.5,0],[0,0.5,0],[0.5,1,0],[0.5,0,0]];labelBackgroundColor=none;rounded=0;html=1;whiteSpace=wrap;" parent="1" vertex="1">
            <mxGeometry x="1145" y="1463" width="100" height="80" as="geometry" />
          </mxCell>
        </UserObject>
        <UserObject label="" tags="背景" id="86">
          <mxCell style="vsdxID=120;fillColor=none;gradientColor=none;shape=stencil(nZBLDoAgDERP0z3SIyjew0SURgSD+Lu9kMZoXLhwN9O+tukAlrNpJg1SzDH4QW/URgNYgZTkjA4UkwJUgGXng+6DX1zLfmoymdXo17xh5zmRJ6Q42BWCfc2oJfdAr+Yv+AP9Cb7OJ3H/2JG1HNGz/84klThPVCc=);dashed=1;points=[];labelBackgroundColor=none;rounded=0;html=1;whiteSpace=wrap;" parent="1" vertex="1">
            <mxGeometry x="998" y="1176" width="199" height="231" as="geometry" />
          </mxCell>
        </UserObject>
        <UserObject label="" tags="背景" id="87">
          <mxCell style="vsdxID=121;fillColor=none;gradientColor=none;shape=stencil(nZBLDoAgDERP0z3SIyjew0SURgSD+Lu9kMZoXLhwN9O+tukAlrNpJg1SzDH4QW/URgNYgZTkjA4UkwJUgGXng+6DX1zLfmoymdXo17xh5zmRJ6Q42BWCfc2oJfdAr+Yv+AP9Cb7OJ3H/2JG1HNGz/84klThPVCc=);dashed=1;points=[];labelBackgroundColor=none;rounded=0;html=1;whiteSpace=wrap;" parent="1" vertex="1">
            <mxGeometry x="1244" y="1176" width="199" height="231" as="geometry" />
          </mxCell>
        </UserObject>
        <UserObject label="" tags="背景" id="88">
          <mxCell style="vsdxID=122;fillColor=none;gradientColor=none;shape=stencil(nZBLDoAgDERP0z3SIyjew0SURgSD+Lu9kMZoXLhwN9O+tukAlrNpJg1SzDH4QW/URgNYgZTkjA4UkwJUgGXng+6DX1zLfmoymdXo17xh5zmRJ6Q42BWCfc2oJfdAr+Yv+AP9Cb7OJ3H/2JG1HNGz/84klThPVCc=);dashed=1;points=[];labelBackgroundColor=none;rounded=0;html=1;whiteSpace=wrap;" parent="1" vertex="1">
            <mxGeometry x="1500" y="1176" width="199" height="231" as="geometry" />
          </mxCell>
        </UserObject>
        <mxCell id="89" parent="1" vertex="1">
          <mxGeometry x="1257" y="495" as="geometry" />
        </mxCell>
        <UserObject label="" tags="连接线" id="90">
          <mxCell style="vsdxID=146;edgeStyle=none;startArrow=none;endArrow=none;startSize=9;endSize=9;spacingTop=0;spacingBottom=0;spacingLeft=0;spacingRight=0;verticalAlign=middle;html=1;labelBackgroundColor=#ffffff;rounded=0;exitX=0.5;exitY=1;exitDx=0;exitDy=0;exitPerimeter=0;" parent="1" source="15" target="89" edge="1">
            <mxGeometry relative="1" as="geometry">
              <mxPoint as="offset" />
              <Array as="points">
                <mxPoint x="1690" y="495.2" />
              </Array>
            </mxGeometry>
          </mxCell>
        </UserObject>
        <mxCell id="91" parent="1" vertex="1">
          <mxGeometry x="1257" y="495" as="geometry" />
        </mxCell>
        <UserObject label="" tags="连接线" id="92">
          <mxCell style="vsdxID=145;edgeStyle=none;startArrow=none;endArrow=none;startSize=9;endSize=9;spacingTop=0;spacingBottom=0;spacingLeft=0;spacingRight=0;verticalAlign=middle;html=1;labelBackgroundColor=#ffffff;rounded=0;exitX=0.5;exitY=1;exitDx=0;exitDy=0;exitPerimeter=0;" parent="1" source="14" target="91" edge="1">
            <mxGeometry relative="1" as="geometry">
              <mxPoint as="offset" />
              <Array as="points">
                <mxPoint x="1516" y="495.2" />
              </Array>
            </mxGeometry>
          </mxCell>
        </UserObject>
        <mxCell id="93" parent="1" vertex="1">
          <mxGeometry x="1257" y="495" as="geometry" />
        </mxCell>
        <UserObject label="" tags="连接线" id="94">
          <mxCell style="vsdxID=144;edgeStyle=none;startArrow=none;endArrow=none;startSize=9;endSize=9;spacingTop=0;spacingBottom=0;spacingLeft=0;spacingRight=0;verticalAlign=middle;html=1;labelBackgroundColor=#ffffff;rounded=0;exitX=0.5;exitY=1;exitDx=0;exitDy=0;exitPerimeter=0;" parent="1" source="21" target="93" edge="1">
            <mxGeometry relative="1" as="geometry">
              <mxPoint x="-1" as="offset" />
              <Array as="points">
                <mxPoint x="1359" y="495.2" />
              </Array>
            </mxGeometry>
          </mxCell>
        </UserObject>
        <mxCell id="95" parent="1" vertex="1">
          <mxGeometry x="1253" y="495" as="geometry" />
        </mxCell>
        <UserObject label="" tags="连接线" id="96">
          <mxCell style="vsdxID=143;edgeStyle=none;startArrow=none;endArrow=none;startSize=9;endSize=9;spacingTop=0;spacingBottom=0;spacingLeft=0;spacingRight=0;verticalAlign=middle;html=1;labelBackgroundColor=#ffffff;rounded=0;exitX=0.5;exitY=1;exitDx=0;exitDy=0;exitPerimeter=0;" parent="1" source="20" target="95" edge="1">
            <mxGeometry relative="1" as="geometry">
              <mxPoint x="-8" y="-1" as="offset" />
              <Array as="points">
                <mxPoint x="1257" y="495.2" />
              </Array>
            </mxGeometry>
          </mxCell>
        </UserObject>
        <mxCell id="97" parent="1" vertex="1">
          <mxGeometry x="1257" y="495" as="geometry" />
        </mxCell>
        <UserObject label="" tags="连接线" id="98">
          <mxCell style="vsdxID=142;edgeStyle=none;startArrow=none;endArrow=none;startSize=9;endSize=9;spacingTop=0;spacingBottom=0;spacingLeft=0;spacingRight=0;verticalAlign=middle;html=1;labelBackgroundColor=#ffffff;rounded=0;exitX=0.5;exitY=1;exitDx=0;exitDy=0;exitPerimeter=0;" parent="1" source="19" target="97" edge="1">
            <mxGeometry relative="1" as="geometry">
              <mxPoint as="offset" />
              <Array as="points">
                <mxPoint x="1156" y="495.2" />
              </Array>
            </mxGeometry>
          </mxCell>
        </UserObject>
        <mxCell id="99" parent="1" vertex="1">
          <mxGeometry x="1253" y="495" as="geometry" />
        </mxCell>
        <UserObject label="" tags="连接线" id="100">
          <mxCell style="vsdxID=141;edgeStyle=none;startArrow=none;endArrow=none;startSize=9;endSize=9;spacingTop=0;spacingBottom=0;spacingLeft=0;spacingRight=0;verticalAlign=middle;html=1;labelBackgroundColor=#ffffff;rounded=0;exitX=0.5;exitY=1;exitDx=0;exitDy=0;exitPerimeter=0;" parent="1" source="18" target="99" edge="1">
            <mxGeometry relative="1" as="geometry">
              <mxPoint as="offset" />
              <Array as="points">
                <mxPoint x="1009" y="495.2" />
              </Array>
            </mxGeometry>
          </mxCell>
        </UserObject>
        <mxCell id="101" parent="1" vertex="1">
          <mxGeometry x="1253" y="495" as="geometry" />
        </mxCell>
        <UserObject label="" tags="连接线" id="102">
          <mxCell style="vsdxID=140;edgeStyle=none;startArrow=none;endArrow=none;startSize=9;endSize=9;spacingTop=0;spacingBottom=0;spacingLeft=0;spacingRight=0;verticalAlign=middle;html=1;labelBackgroundColor=#ffffff;rounded=0;exitX=0.5;exitY=1;exitDx=0;exitDy=0;exitPerimeter=0;" parent="1" source="17" target="101" edge="1">
            <mxGeometry relative="1" as="geometry">
              <mxPoint x="-1" as="offset" />
              <Array as="points">
                <mxPoint x="904" y="495.2" />
              </Array>
            </mxGeometry>
          </mxCell>
        </UserObject>
        <mxCell id="103" parent="1" vertex="1">
          <mxGeometry x="1253" y="495" as="geometry" />
        </mxCell>
        <UserObject label="" tags="连接线" id="104">
          <mxCell style="vsdxID=139;edgeStyle=none;startArrow=none;endArrow=none;startSize=9;endSize=9;spacingTop=0;spacingBottom=0;spacingLeft=0;spacingRight=0;verticalAlign=middle;html=1;labelBackgroundColor=#ffffff;rounded=0;exitX=0.5;exitY=1;exitDx=0;exitDy=0;exitPerimeter=0;" parent="1" source="16" target="103" edge="1">
            <mxGeometry relative="1" as="geometry">
              <mxPoint as="offset" />
              <Array as="points">
                <mxPoint x="799" y="495.2" />
              </Array>
            </mxGeometry>
          </mxCell>
        </UserObject>
        <UserObject label="" tags="连接线" id="105">
          <mxCell style="vsdxID=135;edgeStyle=none;startArrow=none;endArrow=block;startSize=9;endSize=9;spacingTop=0;spacingBottom=0;spacingLeft=0;spacingRight=0;verticalAlign=middle;html=1;labelBackgroundColor=#ffffff;rounded=0;exitX=0.5025125628140703;exitY=1.0043290043290043;exitDx=0;exitDy=0;exitPerimeter=0;entryX=0.5;entryY=0;entryDx=0;entryDy=0;entryPerimeter=0;" parent="1" source="88" target="85" edge="1">
            <mxGeometry relative="1" as="geometry">
              <mxPoint x="-1" as="offset" />
              <Array as="points">
                <mxPoint x="1600" y="1423.86" />
                <mxPoint x="1195.15" y="1423.86" />
              </Array>
            </mxGeometry>
          </mxCell>
        </UserObject>
        <mxCell id="106" parent="1" vertex="1">
          <mxGeometry x="1349" y="1408" as="geometry" />
        </mxCell>
        <UserObject label="" tags="连接线" id="107">
          <mxCell style="vsdxID=134;edgeStyle=none;startArrow=none;endArrow=block;startSize=9;endSize=9;spacingTop=0;spacingBottom=0;spacingLeft=0;spacingRight=0;verticalAlign=middle;html=1;labelBackgroundColor=#ffffff;rounded=0;entryX=0.5;entryY=0;entryDx=0;entryDy=0;entryPerimeter=0;" parent="1" source="106" target="85" edge="1">
            <mxGeometry relative="1" as="geometry">
              <mxPoint as="offset" />
              <Array as="points">
                <mxPoint x="1349" y="1424.12" />
                <mxPoint x="1195" y="1424.12" />
              </Array>
            </mxGeometry>
          </mxCell>
        </UserObject>
        <UserObject label="" tags="连接线" id="108">
          <mxCell style="vsdxID=133;edgeStyle=none;startArrow=none;endArrow=block;startSize=9;endSize=9;spacingTop=0;spacingBottom=0;spacingLeft=0;spacingRight=0;verticalAlign=middle;html=1;labelBackgroundColor=#ffffff;rounded=0;exitX=0.49246231155778897;exitY=1.0043290043290043;exitDx=0;exitDy=0;exitPerimeter=0;entryX=0.5;entryY=0;entryDx=0;entryDy=0;entryPerimeter=0;" parent="1" source="86" target="85" edge="1">
            <mxGeometry relative="1" as="geometry">
              <mxPoint x="-1" as="offset" />
              <Array as="points">
                <mxPoint x="1096" y="1424.32" />
                <mxPoint x="1194.4" y="1424.32" />
              </Array>
            </mxGeometry>
          </mxCell>
        </UserObject>
        <UserObject label="" tags="连接线" id="109">
          <mxCell style="vsdxID=132;edgeStyle=none;startArrow=none;endArrow=block;startSize=9;endSize=9;spacingTop=0;spacingBottom=0;spacingLeft=0;spacingRight=0;verticalAlign=middle;html=1;labelBackgroundColor=#ffffff;rounded=0;exitX=0.49748743718592964;exitY=1;exitDx=0;exitDy=0;exitPerimeter=0;entryX=0.5;entryY=0;entryDx=0;entryDy=0;entryPerimeter=0;" parent="1" source="2" target="85" edge="1">
            <mxGeometry relative="1" as="geometry">
              <mxPoint x="-1" as="offset" />
              <Array as="points">
                <mxPoint x="849" y="1424.13" />
                <mxPoint x="1194.6" y="1424.13" />
              </Array>
            </mxGeometry>
          </mxCell>
        </UserObject>
        <UserObject label="" tags="连接线" id="110">
          <mxCell style="vsdxID=128;edgeStyle=none;startArrow=none;endArrow=block;startSize=9;endSize=9;spacingTop=0;spacingBottom=0;spacingLeft=0;spacingRight=0;verticalAlign=middle;html=1;labelBackgroundColor=#ffffff;rounded=0;exitX=0.5;exitY=1;exitDx=0;exitDy=0;exitPerimeter=0;entryX=0.5125628140703518;entryY=0;entryDx=0;entryDy=0;entryPerimeter=0;" parent="1" source="40" target="88" edge="1">
            <mxGeometry relative="1" as="geometry">
              <mxPoint x="10" as="offset" />
              <Array as="points" />
            </mxGeometry>
          </mxCell>
        </UserObject>
        <UserObject label="" tags="连接线" id="111">
          <mxCell style="vsdxID=127;edgeStyle=none;startArrow=none;endArrow=block;startSize=9;endSize=9;spacingTop=0;spacingBottom=0;spacingLeft=0;spacingRight=0;verticalAlign=middle;html=1;labelBackgroundColor=#ffffff;rounded=0;exitX=0.5;exitY=1;exitDx=0;exitDy=0;exitPerimeter=0;entryX=0.5125628140703518;entryY=0;entryDx=0;entryDy=0;entryPerimeter=0;" parent="1" source="39" target="87" edge="1">
            <mxGeometry relative="1" as="geometry">
              <mxPoint x="10" as="offset" />
              <Array as="points" />
            </mxGeometry>
          </mxCell>
        </UserObject>
        <UserObject label="" tags="连接线" id="112">
          <mxCell style="vsdxID=126;edgeStyle=none;startArrow=none;endArrow=block;startSize=9;endSize=9;spacingTop=0;spacingBottom=0;spacingLeft=0;spacingRight=0;verticalAlign=middle;html=1;labelBackgroundColor=#ffffff;rounded=0;exitX=0.5;exitY=1;exitDx=0;exitDy=0;exitPerimeter=0;entryX=0.5125628140703518;entryY=0;entryDx=0;entryDy=0;entryPerimeter=0;" parent="1" source="38" target="86" edge="1">
            <mxGeometry relative="1" as="geometry">
              <mxPoint x="10" as="offset" />
              <Array as="points" />
            </mxGeometry>
          </mxCell>
        </UserObject>
        <UserObject label="" tags="连接线" id="113">
          <mxCell style="vsdxID=125;edgeStyle=none;startArrow=none;endArrow=block;startSize=9;endSize=9;spacingTop=0;spacingBottom=0;spacingLeft=0;spacingRight=0;verticalAlign=middle;html=1;labelBackgroundColor=#ffffff;rounded=0;exitX=0.5;exitY=1;exitDx=0;exitDy=0;exitPerimeter=0;entryX=0.44221105527638194;entryY=0;entryDx=0;entryDy=0;entryPerimeter=0;" parent="1" source="37" target="2" edge="1">
            <mxGeometry relative="1" as="geometry">
              <mxPoint x="10" as="offset" />
              <Array as="points" />
            </mxGeometry>
          </mxCell>
        </UserObject>
        <UserObject label="" tags="连接线" id="114">
          <mxCell style="vsdxID=124;edgeStyle=none;startArrow=none;endArrow=block;startSize=9;endSize=9;spacingTop=0;spacingBottom=0;spacingLeft=0;spacingRight=0;verticalAlign=middle;html=1;labelBackgroundColor=#ffffff;rounded=0;exitX=0.5147058823529411;exitY=1;exitDx=0;exitDy=0;exitPerimeter=0;entryX=0.5;entryY=0;entryDx=0;entryDy=0;entryPerimeter=0;" parent="1" source="3" target="33" edge="1">
            <mxGeometry relative="1" as="geometry">
              <mxPoint x="10" as="offset" />
              <Array as="points" />
            </mxGeometry>
          </mxCell>
        </UserObject>
        <UserObject label="" tags="连接线" id="115">
          <mxCell style="vsdxID=117;edgeStyle=none;startArrow=none;endArrow=block;startSize=9;endSize=9;spacingTop=0;spacingBottom=0;spacingLeft=0;spacingRight=0;verticalAlign=middle;html=1;labelBackgroundColor=#ffffff;rounded=0;exitX=0.5;exitY=1;exitDx=0;exitDy=0;exitPerimeter=0;entryX=0.5;entryY=0;entryDx=0;entryDy=0;entryPerimeter=0;" parent="1" source="36" target="40" edge="1">
            <mxGeometry relative="1" as="geometry">
              <mxPoint x="-1" as="offset" />
              <Array as="points">
                <mxPoint x="1259" y="1033.45" />
                <mxPoint x="1601.97" y="1033.45" />
              </Array>
            </mxGeometry>
          </mxCell>
        </UserObject>
        <UserObject label="" tags="连接线" id="116">
          <mxCell style="vsdxID=116;edgeStyle=none;startArrow=none;endArrow=block;startSize=9;endSize=9;spacingTop=0;spacingBottom=0;spacingLeft=0;spacingRight=0;verticalAlign=middle;html=1;labelBackgroundColor=#ffffff;rounded=0;exitX=0.5;exitY=1;exitDx=0;exitDy=0;exitPerimeter=0;entryX=0.5;entryY=0;entryDx=0;entryDy=0;entryPerimeter=0;" parent="1" source="36" target="39" edge="1">
            <mxGeometry relative="1" as="geometry">
              <mxPoint x="-1" as="offset" />
              <Array as="points">
                <mxPoint x="1259" y="1034" />
                <mxPoint x="1345.97" y="1034" />
              </Array>
            </mxGeometry>
          </mxCell>
        </UserObject>
        <UserObject label="" tags="连接线" id="117">
          <mxCell style="vsdxID=115;edgeStyle=none;startArrow=none;endArrow=block;startSize=9;endSize=9;spacingTop=0;spacingBottom=0;spacingLeft=0;spacingRight=0;verticalAlign=middle;html=1;labelBackgroundColor=#ffffff;rounded=0;exitX=0.5;exitY=1;exitDx=0;exitDy=0;exitPerimeter=0;entryX=0.5;entryY=0;entryDx=0;entryDy=0;entryPerimeter=0;" parent="1" source="36" target="38" edge="1">
            <mxGeometry relative="1" as="geometry">
              <mxPoint as="offset" />
              <Array as="points">
                <mxPoint x="1259" y="1034" />
                <mxPoint x="1099.91" y="1034" />
              </Array>
            </mxGeometry>
          </mxCell>
        </UserObject>
        <UserObject label="" tags="连接线" id="118">
          <mxCell style="vsdxID=86;edgeStyle=none;startArrow=none;endArrow=block;startSize=9;endSize=9;spacingTop=0;spacingBottom=0;spacingLeft=0;spacingRight=0;verticalAlign=middle;html=1;labelBackgroundColor=#ffffff;rounded=0;exitX=0.5;exitY=1;exitDx=0;exitDy=0;exitPerimeter=0;entryX=0.5;entryY=0;entryDx=0;entryDy=0;entryPerimeter=0;" parent="1" source="4" target="9" edge="1">
            <mxGeometry relative="1" as="geometry">
              <mxPoint as="offset" />
              <Array as="points">
                <mxPoint x="1263" y="92.5" />
                <mxPoint x="1442.75" y="92.5" />
              </Array>
            </mxGeometry>
          </mxCell>
        </UserObject>
        <UserObject label="" tags="连接线" id="119">
          <mxCell style="vsdxID=85;edgeStyle=none;startArrow=none;endArrow=block;startSize=9;endSize=9;spacingTop=0;spacingBottom=0;spacingLeft=0;spacingRight=0;verticalAlign=middle;html=1;labelBackgroundColor=#ffffff;rounded=0;exitX=0.5;exitY=1;exitDx=0;exitDy=0;exitPerimeter=0;entryX=0.5;entryY=0;entryDx=0;entryDy=0;entryPerimeter=0;" parent="1" source="4" target="8" edge="1">
            <mxGeometry relative="1" as="geometry">
              <mxPoint x="10" as="offset" />
              <Array as="points" />
            </mxGeometry>
          </mxCell>
        </UserObject>
        <UserObject label="" tags="连接线" id="120">
          <mxCell style="vsdxID=84;edgeStyle=none;startArrow=none;endArrow=block;startSize=9;endSize=9;spacingTop=0;spacingBottom=0;spacingLeft=0;spacingRight=0;verticalAlign=middle;html=1;labelBackgroundColor=#ffffff;rounded=0;exitX=0.5;exitY=1;exitDx=0;exitDy=0;exitPerimeter=0;entryX=0.5;entryY=0;entryDx=0;entryDy=0;entryPerimeter=0;" parent="1" source="4" target="7" edge="1">
            <mxGeometry relative="1" as="geometry">
              <mxPoint as="offset" />
              <Array as="points">
                <mxPoint x="1263" y="92.5" />
                <mxPoint x="1038.25" y="92.5" />
              </Array>
            </mxGeometry>
          </mxCell>
        </UserObject>
        <UserObject label="" tags="连接线" id="121">
          <mxCell style="vsdxID=83;edgeStyle=none;startArrow=none;endArrow=block;startSize=9;endSize=9;spacingTop=0;spacingBottom=0;spacingLeft=0;spacingRight=0;verticalAlign=middle;html=1;labelBackgroundColor=#ffffff;rounded=0;exitX=0.5;exitY=1;exitDx=0;exitDy=0;exitPerimeter=0;entryX=0.5;entryY=0;entryDx=0;entryDy=0;entryPerimeter=0;" parent="1" source="4" target="6" edge="1">
            <mxGeometry relative="1" as="geometry">
              <mxPoint as="offset" />
              <Array as="points">
                <mxPoint x="1263" y="92.5" />
                <mxPoint x="836" y="92.5" />
              </Array>
            </mxGeometry>
          </mxCell>
        </UserObject>
        <UserObject label="" tags="连接线" id="122">
          <mxCell style="vsdxID=87;edgeStyle=none;startArrow=none;endArrow=block;startSize=9;endSize=9;spacingTop=0;spacingBottom=0;spacingLeft=0;spacingRight=0;verticalAlign=middle;html=1;labelBackgroundColor=#ffffff;rounded=0;exitX=0.5;exitY=1;exitDx=0;exitDy=0;exitPerimeter=0;entryX=0.5;entryY=0;entryDx=0;entryDy=0;entryPerimeter=0;" parent="1" source="4" target="10" edge="1">
            <mxGeometry relative="1" as="geometry">
              <mxPoint as="offset" />
              <Array as="points">
                <mxPoint x="1263" y="92.5" />
                <mxPoint x="1645" y="92.5" />
              </Array>
            </mxGeometry>
          </mxCell>
        </UserObject>
        <UserObject label="" tags="连接线" id="123">
          <mxCell style="vsdxID=88;edgeStyle=none;startArrow=none;endArrow=block;startSize=9;endSize=9;spacingTop=0;spacingBottom=0;spacingLeft=0;spacingRight=0;verticalAlign=middle;html=1;labelBackgroundColor=#ffffff;rounded=0;exitX=0.5;exitY=1;exitDx=0;exitDy=0;exitPerimeter=0;entryX=0.5;entryY=0;entryDx=0;entryDy=0;entryPerimeter=0;" parent="1" source="6" target="11" edge="1">
            <mxGeometry relative="1" as="geometry">
              <mxPoint x="-1" as="offset" />
              <Array as="points">
                <mxPoint x="836" y="183" />
                <mxPoint x="1263" y="183" />
              </Array>
            </mxGeometry>
          </mxCell>
        </UserObject>
        <UserObject label="" tags="连接线" id="124">
          <mxCell style="vsdxID=89;edgeStyle=none;startArrow=none;endArrow=block;startSize=9;endSize=9;spacingTop=0;spacingBottom=0;spacingLeft=0;spacingRight=0;verticalAlign=middle;html=1;labelBackgroundColor=#ffffff;rounded=0;exitX=0.5;exitY=1;exitDx=0;exitDy=0;exitPerimeter=0;entryX=0.5;entryY=0;entryDx=0;entryDy=0;entryPerimeter=0;" parent="1" source="7" target="11" edge="1">
            <mxGeometry relative="1" as="geometry">
              <mxPoint as="offset" />
              <Array as="points">
                <mxPoint x="1038" y="183" />
                <mxPoint x="1262.75" y="183" />
              </Array>
            </mxGeometry>
          </mxCell>
        </UserObject>
        <UserObject label="" tags="连接线" id="125">
          <mxCell style="vsdxID=90;edgeStyle=none;startArrow=none;endArrow=block;startSize=9;endSize=9;spacingTop=0;spacingBottom=0;spacingLeft=0;spacingRight=0;verticalAlign=middle;html=1;labelBackgroundColor=#ffffff;rounded=0;exitX=0.5;exitY=1;exitDx=0;exitDy=0;exitPerimeter=0;entryX=0.5;entryY=0;entryDx=0;entryDy=0;entryPerimeter=0;" parent="1" source="8" target="11" edge="1">
            <mxGeometry relative="1" as="geometry">
              <mxPoint x="-10" as="offset" />
              <Array as="points" />
            </mxGeometry>
          </mxCell>
        </UserObject>
        <UserObject label="" tags="连接线" id="126">
          <mxCell style="vsdxID=91;edgeStyle=none;startArrow=none;endArrow=block;startSize=9;endSize=9;spacingTop=0;spacingBottom=0;spacingLeft=0;spacingRight=0;verticalAlign=middle;html=1;labelBackgroundColor=#ffffff;rounded=0;exitX=0.5;exitY=1;exitDx=0;exitDy=0;exitPerimeter=0;entryX=0.5;entryY=0;entryDx=0;entryDy=0;entryPerimeter=0;" parent="1" source="9" target="11" edge="1">
            <mxGeometry relative="1" as="geometry">
              <mxPoint as="offset" />
              <Array as="points">
                <mxPoint x="1442" y="183" />
                <mxPoint x="1262.25" y="183" />
              </Array>
            </mxGeometry>
          </mxCell>
        </UserObject>
        <UserObject label="" tags="连接线" id="127">
          <mxCell style="vsdxID=92;edgeStyle=none;startArrow=none;endArrow=block;startSize=9;endSize=9;spacingTop=0;spacingBottom=0;spacingLeft=0;spacingRight=0;verticalAlign=middle;html=1;labelBackgroundColor=#ffffff;rounded=0;exitX=0.5;exitY=1;exitDx=0;exitDy=0;exitPerimeter=0;entryX=0.5;entryY=0;entryDx=0;entryDy=0;entryPerimeter=0;" parent="1" source="10" target="11" edge="1">
            <mxGeometry relative="1" as="geometry">
              <mxPoint as="offset" />
              <Array as="points">
                <mxPoint x="1645" y="183" />
                <mxPoint x="1263" y="183" />
              </Array>
            </mxGeometry>
          </mxCell>
        </UserObject>
        <UserObject label="" tags="连接线" id="128">
          <mxCell style="vsdxID=93;edgeStyle=none;startArrow=none;endArrow=block;startSize=9;endSize=9;spacingTop=0;spacingBottom=0;spacingLeft=0;spacingRight=0;verticalAlign=middle;html=1;labelBackgroundColor=#ffffff;rounded=0;exitX=0.5;exitY=1;exitDx=0;exitDy=0;exitPerimeter=0;entryX=0.5;entryY=0;entryDx=0;entryDy=0;entryPerimeter=0;" parent="1" source="11" target="12" edge="1">
            <mxGeometry relative="1" as="geometry">
              <mxPoint as="offset" />
              <Array as="points">
                <mxPoint x="1263" y="273" />
                <mxPoint x="919" y="273" />
              </Array>
            </mxGeometry>
          </mxCell>
        </UserObject>
        <UserObject label="" tags="连接线" id="129">
          <mxCell style="vsdxID=94;edgeStyle=none;startArrow=none;endArrow=block;startSize=9;endSize=9;spacingTop=0;spacingBottom=0;spacingLeft=0;spacingRight=0;verticalAlign=middle;html=1;labelBackgroundColor=#ffffff;rounded=0;exitX=0.5;exitY=1;exitDx=0;exitDy=0;exitPerimeter=0;entryX=0.5;entryY=0;entryDx=0;entryDy=0;entryPerimeter=0;" parent="1" source="11" target="13" edge="1">
            <mxGeometry relative="1" as="geometry">
              <mxPoint x="10" as="offset" />
              <Array as="points" />
            </mxGeometry>
          </mxCell>
        </UserObject>
        <UserObject label="" tags="连接线" id="130">
          <mxCell style="vsdxID=95;edgeStyle=none;startArrow=none;endArrow=block;startSize=9;endSize=9;spacingTop=0;spacingBottom=0;spacingLeft=0;spacingRight=0;verticalAlign=middle;html=1;labelBackgroundColor=#ffffff;rounded=0;exitX=0.5;exitY=1;exitDx=0;exitDy=0;exitPerimeter=0;entryX=0.5;entryY=0;entryDx=0;entryDy=0;entryPerimeter=0;" parent="1" source="11" target="14" edge="1">
            <mxGeometry relative="1" as="geometry">
              <mxPoint x="-1" as="offset" />
              <Array as="points">
                <mxPoint x="1263" y="273" />
                <mxPoint x="1516" y="273" />
              </Array>
            </mxGeometry>
          </mxCell>
        </UserObject>
        <UserObject label="" tags="连接线" id="131">
          <mxCell style="vsdxID=96;edgeStyle=none;startArrow=none;endArrow=block;startSize=9;endSize=9;spacingTop=0;spacingBottom=0;spacingLeft=0;spacingRight=0;verticalAlign=middle;html=1;labelBackgroundColor=#ffffff;rounded=0;exitX=0.5;exitY=1;exitDx=0;exitDy=0;exitPerimeter=0;entryX=0.5;entryY=0;entryDx=0;entryDy=0;entryPerimeter=0;" parent="1" source="11" target="15" edge="1">
            <mxGeometry relative="1" as="geometry">
              <mxPoint x="-1" as="offset" />
              <Array as="points">
                <mxPoint x="1263" y="273" />
                <mxPoint x="1690" y="273" />
              </Array>
            </mxGeometry>
          </mxCell>
        </UserObject>
        <UserObject label="" tags="连接线" id="132">
          <mxCell style="vsdxID=97;edgeStyle=none;startArrow=none;endArrow=block;startSize=9;endSize=9;spacingTop=0;spacingBottom=0;spacingLeft=0;spacingRight=0;verticalAlign=middle;html=1;labelBackgroundColor=#ffffff;rounded=0;exitX=0.5;exitY=1;exitDx=0;exitDy=0;exitPerimeter=0;entryX=0.5;entryY=0;entryDx=0;entryDy=0;entryPerimeter=0;" parent="1" source="12" target="16" edge="1">
            <mxGeometry relative="1" as="geometry">
              <mxPoint as="offset" />
              <Array as="points">
                <mxPoint x="919" y="388" />
                <mxPoint x="799" y="388" />
              </Array>
            </mxGeometry>
          </mxCell>
        </UserObject>
        <UserObject label="" tags="连接线" id="133">
          <mxCell style="vsdxID=98;edgeStyle=none;startArrow=none;endArrow=block;startSize=9;endSize=9;spacingTop=0;spacingBottom=0;spacingLeft=0;spacingRight=0;verticalAlign=middle;html=1;labelBackgroundColor=#ffffff;rounded=0;exitX=0.5;exitY=1;exitDx=0;exitDy=0;exitPerimeter=0;entryX=0.5;entryY=0;entryDx=0;entryDy=0;entryPerimeter=0;" parent="1" source="12" target="17" edge="1">
            <mxGeometry relative="1" as="geometry">
              <mxPoint x="-2" as="offset" />
              <Array as="points">
                <mxPoint x="919" y="388" />
                <mxPoint x="904" y="388" />
              </Array>
            </mxGeometry>
          </mxCell>
        </UserObject>
        <UserObject label="" tags="连接线" id="134">
          <mxCell style="vsdxID=99;edgeStyle=none;startArrow=none;endArrow=block;startSize=9;endSize=9;spacingTop=0;spacingBottom=0;spacingLeft=0;spacingRight=0;verticalAlign=middle;html=1;labelBackgroundColor=#ffffff;rounded=0;exitX=0.5;exitY=1;exitDx=0;exitDy=0;exitPerimeter=0;entryX=0.5;entryY=0;entryDx=0;entryDy=0;entryPerimeter=0;" parent="1" source="12" target="18" edge="1">
            <mxGeometry relative="1" as="geometry">
              <mxPoint as="offset" />
              <Array as="points">
                <mxPoint x="919" y="388" />
                <mxPoint x="1009" y="388" />
              </Array>
            </mxGeometry>
          </mxCell>
        </UserObject>
        <UserObject label="" tags="连接线" id="135">
          <mxCell style="vsdxID=100;edgeStyle=none;startArrow=none;endArrow=block;startSize=9;endSize=9;spacingTop=0;spacingBottom=0;spacingLeft=0;spacingRight=0;verticalAlign=middle;html=1;labelBackgroundColor=#ffffff;rounded=0;exitX=0.5;exitY=1;exitDx=0;exitDy=0;exitPerimeter=0;entryX=0.5;entryY=0;entryDx=0;entryDy=0;entryPerimeter=0;" parent="1" source="13" target="19" edge="1">
            <mxGeometry relative="1" as="geometry">
              <mxPoint as="offset" />
              <Array as="points">
                <mxPoint x="1263" y="383" />
                <mxPoint x="1156" y="383" />
              </Array>
            </mxGeometry>
          </mxCell>
        </UserObject>
        <UserObject label="" tags="连接线" id="136">
          <mxCell style="vsdxID=101;edgeStyle=none;startArrow=none;endArrow=block;startSize=9;endSize=9;spacingTop=0;spacingBottom=0;spacingLeft=0;spacingRight=0;verticalAlign=middle;html=1;labelBackgroundColor=#ffffff;rounded=0;exitX=0.5;exitY=1;exitDx=0;exitDy=0;exitPerimeter=0;entryX=0.5;entryY=0;entryDx=0;entryDy=0;entryPerimeter=0;" parent="1" source="13" target="20" edge="1">
            <mxGeometry relative="1" as="geometry">
              <mxPoint x="-8" y="-1" as="offset" />
              <Array as="points">
                <mxPoint x="1263" y="383" />
                <mxPoint x="1257.5" y="383" />
              </Array>
            </mxGeometry>
          </mxCell>
        </UserObject>
        <UserObject label="" tags="连接线" id="137">
          <mxCell style="vsdxID=102;edgeStyle=none;startArrow=none;endArrow=block;startSize=9;endSize=9;spacingTop=0;spacingBottom=0;spacingLeft=0;spacingRight=0;verticalAlign=middle;html=1;labelBackgroundColor=#ffffff;rounded=0;exitX=0.5;exitY=1;exitDx=0;exitDy=0;exitPerimeter=0;entryX=0.5;entryY=0;entryDx=0;entryDy=0;entryPerimeter=0;" parent="1" source="13" target="21" edge="1">
            <mxGeometry relative="1" as="geometry">
              <mxPoint as="offset" />
              <Array as="points">
                <mxPoint x="1263" y="383" />
                <mxPoint x="1359" y="383" />
              </Array>
            </mxGeometry>
          </mxCell>
        </UserObject>
        <UserObject label="" tags="连接线" id="138">
          <mxCell style="vsdxID=103;edgeStyle=none;startArrow=none;endArrow=block;startSize=9;endSize=9;spacingTop=0;spacingBottom=0;spacingLeft=0;spacingRight=0;verticalAlign=middle;html=1;labelBackgroundColor=#ffffff;rounded=0;exitX=1;exitY=0.5;exitDx=0;exitDy=0;exitPerimeter=0;entryX=0;entryY=0.5;entryDx=0;entryDy=0;entryPerimeter=0;" parent="1" source="22" target="23" edge="1">
            <mxGeometry relative="1" as="geometry">
              <mxPoint x="-1" as="offset" />
              <Array as="points" />
            </mxGeometry>
          </mxCell>
        </UserObject>
        <UserObject label="" tags="连接线" id="139">
          <mxCell style="vsdxID=104;edgeStyle=none;startArrow=none;endArrow=block;startSize=9;endSize=9;spacingTop=0;spacingBottom=0;spacingLeft=0;spacingRight=0;verticalAlign=middle;html=1;labelBackgroundColor=#ffffff;rounded=0;exitX=1;exitY=0.5;exitDx=0;exitDy=0;exitPerimeter=0;entryX=0;entryY=0.5;entryDx=0;entryDy=0;entryPerimeter=0;" parent="1" source="23" target="24" edge="1">
            <mxGeometry relative="1" as="geometry">
              <mxPoint x="-1" as="offset" />
              <Array as="points" />
            </mxGeometry>
          </mxCell>
        </UserObject>
        <UserObject label="" tags="连接线" id="140">
          <mxCell style="vsdxID=105;edgeStyle=none;startArrow=none;endArrow=block;startSize=9;endSize=9;spacingTop=0;spacingBottom=0;spacingLeft=0;spacingRight=0;verticalAlign=middle;html=1;labelBackgroundColor=#ffffff;rounded=0;exitX=0.5;exitY=1;exitDx=0;exitDy=0;exitPerimeter=0;entryX=0.5;entryY=0;entryDx=0;entryDy=0;entryPerimeter=0;" parent="1" source="24" target="25" edge="1">
            <mxGeometry relative="1" as="geometry">
              <mxPoint x="10" as="offset" />
              <Array as="points" />
            </mxGeometry>
          </mxCell>
        </UserObject>
        <UserObject label="" tags="连接线" id="141">
          <mxCell style="vsdxID=106;edgeStyle=none;startArrow=none;endArrow=block;startSize=9;endSize=9;spacingTop=0;spacingBottom=0;spacingLeft=0;spacingRight=0;verticalAlign=middle;html=1;labelBackgroundColor=#ffffff;rounded=0;exitX=0;exitY=0.5;exitDx=0;exitDy=0;exitPerimeter=0;entryX=1;entryY=0.5;entryDx=0;entryDy=0;entryPerimeter=0;" parent="1" source="25" target="26" edge="1">
            <mxGeometry relative="1" as="geometry">
              <mxPoint as="offset" />
              <Array as="points" />
            </mxGeometry>
          </mxCell>
        </UserObject>
        <UserObject label="" tags="连接线" id="142">
          <mxCell style="vsdxID=107;edgeStyle=none;startArrow=none;endArrow=block;startSize=9;endSize=9;spacingTop=0;spacingBottom=0;spacingLeft=0;spacingRight=0;verticalAlign=middle;html=1;labelBackgroundColor=#ffffff;rounded=0;exitX=0;exitY=0.5;exitDx=0;exitDy=0;exitPerimeter=0;entryX=1;entryY=0.5;entryDx=0;entryDy=0;entryPerimeter=0;" parent="1" source="26" target="27" edge="1">
            <mxGeometry relative="1" as="geometry">
              <mxPoint as="offset" />
              <Array as="points" />
            </mxGeometry>
          </mxCell>
        </UserObject>
        <UserObject label="" tags="连接线" id="143">
          <mxCell style="vsdxID=108;edgeStyle=none;startArrow=none;endArrow=block;startSize=9;endSize=9;spacingTop=0;spacingBottom=0;spacingLeft=0;spacingRight=0;verticalAlign=middle;html=1;labelBackgroundColor=#ffffff;rounded=0;exitX=0.5;exitY=1;exitDx=0;exitDy=0;exitPerimeter=0;entryX=0.502092050209205;entryY=0;entryDx=0;entryDy=0;entryPerimeter=0;" parent="1" source="33" target="5" edge="1">
            <mxGeometry relative="1" as="geometry">
              <mxPoint as="offset" />
              <Array as="points">
                <mxPoint x="1259" y="823" />
                <mxPoint x="925.08" y="823" />
              </Array>
            </mxGeometry>
          </mxCell>
        </UserObject>
        <UserObject label="" tags="连接线" id="144">
          <mxCell style="vsdxID=109;edgeStyle=none;startArrow=none;endArrow=block;startSize=9;endSize=9;spacingTop=0;spacingBottom=0;spacingLeft=0;spacingRight=0;verticalAlign=middle;html=1;labelBackgroundColor=#ffffff;rounded=0;exitX=0.5;exitY=1;exitDx=0;exitDy=0;exitPerimeter=0;entryX=0.502092050209205;entryY=0;entryDx=0;entryDy=0;entryPerimeter=0;" parent="1" source="33" target="34" edge="1">
            <mxGeometry relative="1" as="geometry">
              <mxPoint x="10" y="-1" as="offset" />
              <Array as="points" />
            </mxGeometry>
          </mxCell>
        </UserObject>
        <UserObject label="" tags="连接线" id="145">
          <mxCell style="vsdxID=110;edgeStyle=none;startArrow=none;endArrow=block;startSize=9;endSize=9;spacingTop=0;spacingBottom=0;spacingLeft=0;spacingRight=0;verticalAlign=middle;html=1;labelBackgroundColor=#ffffff;rounded=0;exitX=0.5;exitY=1;exitDx=0;exitDy=0;exitPerimeter=0;entryX=0.502092050209205;entryY=0;entryDx=0;entryDy=0;entryPerimeter=0;" parent="1" source="33" target="35" edge="1">
            <mxGeometry relative="1" as="geometry">
              <mxPoint x="-1" as="offset" />
              <Array as="points">
                <mxPoint x="1259" y="823" />
                <mxPoint x="1572.87" y="823" />
              </Array>
            </mxGeometry>
          </mxCell>
        </UserObject>
        <UserObject label="" tags="连接线" id="146">
          <mxCell style="vsdxID=111;edgeStyle=none;startArrow=none;endArrow=block;startSize=9;endSize=9;spacingTop=0;spacingBottom=0;spacingLeft=0;spacingRight=0;verticalAlign=middle;html=1;labelBackgroundColor=#ffffff;rounded=0;exitX=0.502092050209205;exitY=0.8833333333333333;exitDx=0;exitDy=0;exitPerimeter=0;entryX=0.5;entryY=0;entryDx=0;entryDy=0;entryPerimeter=0;" parent="1" source="5" target="36" edge="1">
            <mxGeometry relative="1" as="geometry">
              <mxPoint x="-1" as="offset" />
              <Array as="points">
                <mxPoint x="925" y="914.5" />
                <mxPoint x="1258.92" y="914.5" />
              </Array>
            </mxGeometry>
          </mxCell>
        </UserObject>
        <UserObject label="" tags="连接线" id="147">
          <mxCell style="vsdxID=112;edgeStyle=none;startArrow=none;endArrow=block;startSize=9;endSize=9;spacingTop=0;spacingBottom=0;spacingLeft=0;spacingRight=0;verticalAlign=middle;html=1;labelBackgroundColor=#ffffff;rounded=0;exitX=0.502092050209205;exitY=0.8833333333333333;exitDx=0;exitDy=0;exitPerimeter=0;entryX=0.5;entryY=0;entryDx=0;entryDy=0;entryPerimeter=0;" parent="1" source="34" target="36" edge="1">
            <mxGeometry relative="1" as="geometry">
              <mxPoint x="10" y="-1" as="offset" />
              <Array as="points" />
            </mxGeometry>
          </mxCell>
        </UserObject>
        <UserObject label="" tags="连接线" id="148">
          <mxCell style="vsdxID=113;edgeStyle=none;startArrow=none;endArrow=block;startSize=9;endSize=9;spacingTop=0;spacingBottom=0;spacingLeft=0;spacingRight=0;verticalAlign=middle;html=1;labelBackgroundColor=#ffffff;rounded=0;exitX=0.502092050209205;exitY=0.8833333333333333;exitDx=0;exitDy=0;exitPerimeter=0;entryX=0.5;entryY=0;entryDx=0;entryDy=0;entryPerimeter=0;" parent="1" source="35" target="36" edge="1">
            <mxGeometry relative="1" as="geometry">
              <mxPoint as="offset" />
              <Array as="points">
                <mxPoint x="1573" y="914.5" />
                <mxPoint x="1259.13" y="914.5" />
              </Array>
            </mxGeometry>
          </mxCell>
        </UserObject>
        <UserObject label="" tags="连接线" id="149">
          <mxCell style="vsdxID=114;edgeStyle=none;startArrow=none;endArrow=block;startSize=9;endSize=9;spacingTop=0;spacingBottom=0;spacingLeft=0;spacingRight=0;verticalAlign=middle;html=1;labelBackgroundColor=#ffffff;rounded=0;exitX=0.5;exitY=1;exitDx=0;exitDy=0;exitPerimeter=0;entryX=0.5;entryY=0;entryDx=0;entryDy=0;entryPerimeter=0;" parent="1" source="36" target="37" edge="1">
            <mxGeometry relative="1" as="geometry">
              <mxPoint as="offset" />
              <Array as="points">
                <mxPoint x="1259" y="1034" />
                <mxPoint x="837.97" y="1034" />
              </Array>
            </mxGeometry>
          </mxCell>
        </UserObject>
        <mxCell id="150" parent="1" vertex="1">
          <mxGeometry x="1257" y="495" as="geometry" />
        </mxCell>
        <UserObject label="" tags="连接线" id="151">
          <mxCell style="vsdxID=147;edgeStyle=none;startArrow=none;endArrow=block;startSize=9;endSize=9;spacingTop=0;spacingBottom=0;spacingLeft=0;spacingRight=0;verticalAlign=middle;html=1;labelBackgroundColor=#ffffff;rounded=0;entryX=0.5117647058823529;entryY=0;entryDx=0;entryDy=0;entryPerimeter=0;" parent="1" source="150" target="3" edge="1">
            <mxGeometry relative="1" as="geometry">
              <mxPoint x="10" as="offset" />
              <Array as="points" />
            </mxGeometry>
          </mxCell>
        </UserObject>
      </root>
    </mxGraphModel>
  </diagram>
</mxfile>
